<svg xmlns="http://www.w3.org/2000/svg" version="1.1" xmlns:xlink="http://www.w3.org/1999/xlink" width="512" height="512" x="0" y="0" viewBox="0 0 512 512" style="enable-background:new 0 0 512 512" xml:space="preserve"><g><path d="M132.144 202.973a7.5 7.5 0 0 0-7.502 7.502v35.558c0 84.647 50.966 163.721 128.231 198.36q3.069 1.313 6.138 0c77.251-34.633 128.231-113.71 128.231-198.36v-131.2a7.5 7.5 0 0 0-5.129-7.117l-123.798-41.27a7.5 7.5 0 0 0-4.745 0l-123.798 41.269a7.5 7.5 0 0 0-5.129 7.117v62.955c0 4.144 3.358 7.502 7.502 7.502s7.502-3.358 7.502-7.502v-57.549L255.944 81.47l116.297 38.768v125.794c0 77.533-45.997 150.324-116.297 183.262-70.296-32.936-116.297-105.724-116.297-183.262v-35.558a7.5 7.5 0 0 0-7.503-7.501" fill="#193175" opacity="1" data-original="#000000"></path><path d="M255.942 308.098a7.5 7.5 0 0 0 7.502-7.502v-9.288c9.031-3.119 15.535-11.705 15.535-21.782 0-12.702-10.334-23.037-23.037-23.037s-23.037 10.334-23.037 23.037c0 10.077 6.504 18.663 15.535 21.782v9.288a7.5 7.5 0 0 0 7.502 7.502m0-46.604c4.43 0 8.033 3.603 8.033 8.033s-3.603 8.033-8.033 8.033-8.033-3.603-8.033-8.033 3.604-8.033 8.033-8.033" fill="#193175" opacity="1" data-original="#000000"></path><path d="M255.942 124.336c-29.9 0-54.225 24.325-54.225 54.225v39.106h-15.681a7.5 7.5 0 0 0-7.502 7.502v108.735a7.5 7.5 0 0 0 7.502 7.502h53.612c4.144 0 7.502-3.358 7.502-7.502s-3.358-7.502-7.502-7.502h-46.11V232.67h124.808v93.732h-46c-4.144 0-7.502 3.358-7.502 7.502s3.358 7.502 7.502 7.502h53.502a7.5 7.5 0 0 0 7.502-7.502V225.168a7.5 7.5 0 0 0-7.502-7.502h-15.681V178.56c0-29.899-24.325-54.224-54.225-54.224m-39.221 54.224c0-21.626 17.595-39.221 39.221-39.221s39.221 17.595 39.221 39.221v39.058H278.86V178.56c0-12.637-10.281-22.917-22.917-22.917s-22.917 10.281-22.917 22.917v39.058h-16.304V178.56zm31.307 0c0-4.363 3.551-7.914 7.914-7.914s7.914 3.551 7.914 7.914v39.106h-15.828z" fill="#193175" opacity="1" data-original="#000000"></path><path d="M467.382 263.617c3.275 8.739 11.713 14.976 21.581 14.976 12.702 0 23.037-10.334 23.037-23.037s-10.334-23.037-23.037-23.037c-10.284 0-19.015 6.774-21.967 16.094h-48.459c.009-.86.013-47.135.013-47.135h39.343a7.5 7.5 0 0 0 6.242-3.341l18.987-28.48c13.142 3.448 28.878-8.41 28.878-22.286 0-12.702-10.334-23.037-23.037-23.037s-23.037 10.334-23.037 23.037a22.9 22.9 0 0 0 4.718 13.953l-16.766 25.149h-35.329V92.268a7.5 7.5 0 0 0-5.13-7.117l-67.466-22.486a7.503 7.503 0 0 0-4.744 14.234l62.336 20.776v148.358c0 95.39-58.806 182.227-147.605 217.353-88.798-35.126-147.605-121.959-147.605-217.353V97.674L255.94 48.473l54.24 18.083c3.93 1.306 8.179-.815 9.49-4.744a7.503 7.503 0 0 0-4.744-9.49l-56.613-18.875a7.5 7.5 0 0 0-4.745 0L98.463 85.151a7.5 7.5 0 0 0-5.129 7.117v94.207H58.12l-16.765-25.149a22.92 22.92 0 0 0 4.719-13.954c0-12.702-10.334-23.037-23.037-23.037S0 134.67 0 147.372c0 17.055 15.736 25.734 28.878 22.286l18.986 28.48a7.5 7.5 0 0 0 6.242 3.341h39.229s.005 46.275.013 47.135H45.004c-2.952-9.32-11.684-16.094-21.967-16.094C10.334 232.52 0 242.855 0 255.557s10.334 23.037 23.037 23.037c9.868 0 18.307-6.237 21.581-14.976h49.328a248.7 248.7 0 0 0 7.872 47.135H54.105a7.5 7.5 0 0 0-6.242 3.341l-18.986 28.48C15.736 339.125 0 349.324 0 364.859c0 12.702 10.334 23.037 23.037 23.037s23.037-10.334 23.037-23.037a22.9 22.9 0 0 0-4.719-13.954l16.765-25.149h48.236c23.494 69.61 78.318 126.491 146.91 152.688q2.676.987 5.353 0c68.593-26.197 123.414-83.071 146.91-152.688h48.35l16.766 25.149a22.9 22.9 0 0 0-4.718 13.953c0 12.702 10.334 23.037 23.037 23.037S512 377.561 512 364.859c0-13.876-15.736-25.734-28.878-22.286l-18.987-28.48a7.5 7.5 0 0 0-6.242-3.341h-47.827a248.6 248.6 0 0 0 7.872-47.135zm21.581-16.093c4.43 0 8.033 3.603 8.033 8.033s-3.603 8.033-8.033 8.033-8.033-3.603-8.033-8.033 3.604-8.033 8.033-8.033m0-108.185c4.43 0 8.033 3.603 8.033 8.033s-3.603 8.033-8.033 8.033-8.033-3.603-8.033-8.033 3.604-8.033 8.033-8.033m-473.96 8.033c0-4.43 3.603-8.033 8.033-8.033s8.033 3.603 8.033 8.033-3.603 8.033-8.033 8.033-8.033-3.603-8.033-8.033m8.034 116.218c-4.43 0-8.033-3.603-8.033-8.033s3.603-8.033 8.033-8.033 8.033 3.603 8.033 8.033-3.604 8.033-8.033 8.033m0 109.302c-4.43 0-8.033-3.603-8.033-8.033s3.603-8.033 8.033-8.033 8.033 3.603 8.033 8.033-3.604 8.033-8.033 8.033m473.96-8.033c0 4.43-3.603 8.033-8.033 8.033s-8.033-3.603-8.033-8.033 3.603-8.033 8.033-8.033c4.429-.001 8.033 3.603 8.033 8.033" fill="#193175" opacity="1" data-original="#000000"></path></g></svg>