<svg xmlns="http://www.w3.org/2000/svg" version="1.1" xmlns:xlink="http://www.w3.org/1999/xlink" width="512" height="512" x="0" y="0" viewBox="0 0 512 512" style="enable-background:new 0 0 512 512" xml:space="preserve"><g><path d="m208.138 411.687-30.635-30.635 30.635-30.635M303.862 411.687l30.635-30.635-30.635-30.635M242.225 419.206l27.551-76.308M371.225 398.732h82.071M453.296 363.372h-82.071M75.553 398.732h63.951M107.528 363.372h31.976M404.192 161.38l65.378.03c8.28 0 15 6.72 14.99 15l-.13 274M27.53 232.08l.03-55.88c.01-8.28 6.72-14.99 15.01-14.99l68.05.03M27.52 267.08l-.04 75.15M27.432 450.204l.018-38.517M145.78 451.31H494.5c5.52 0 10 4.48 10 10 0 8.29-3.36 15.79-8.79 21.21-5.43 5.43-12.93 8.79-21.21 8.79h-44.74M110.78 451.31H17.5c-2.76 0-5.26 1.12-7.07 2.93s-2.93 4.31-2.93 7.07c0 16.57 13.43 30 30 30h357.26M111.773 270.782l26.199-22.669M128.277 336.557l-56.409 65.189c-13.926 16.093-38.584 16.982-53.632 1.934h0c-15.048-15.048-14.159-39.707 1.934-53.632l64.956-56.207M173.77 283.983l-22.051 25.483M130.425 336.865l-45.374-45.374a5.544 5.544 0 0 1 0-7.842l14.564-14.564a5.544 5.544 0 0 1 7.842 0l45.374 45.374a5.544 5.544 0 0 1 0 7.842l-14.564 14.564a5.544 5.544 0 0 1-7.842 0M369.02 256.36c20.14-24.86 32.2-56.52 32.2-91 0-79.9-64.77-144.67-144.67-144.67S111.88 85.46 111.88 165.36c0 30.8 9.62 59.35 26.03 82.81 9.75 13.94 21.9 26.09 35.84 35.84 23.46 16.4 52.01 26.02 82.8 26.02 32.8 0 63.05-10.91 87.32-29.32" style="stroke-width:15;stroke-linecap:round;stroke-linejoin:round;stroke-miterlimit:10" fill="none" stroke="#193175" stroke-width="15" stroke-linecap="round" stroke-linejoin="round" stroke-miterlimit="1" data-original="#000000" opacity="1"></path><circle cx="256.554" cy="165.362" r="113.694" style="stroke-width:15;stroke-linecap:round;stroke-linejoin:round;stroke-miterlimit:10" fill="none" stroke="#193175" stroke-width="15" stroke-linecap="round" stroke-linejoin="round" stroke-miterlimit="1" data-original="#000000" opacity="1"></circle><path d="M234.737 129.658v-8.977c0-12.031 9.753-21.784 21.784-21.784h0c12.031 0 21.784 9.753 21.784 21.784v8.977M256.521 156.191v74.502" style="stroke-width:15;stroke-linecap:round;stroke-linejoin:round;stroke-miterlimit:10" fill="none" stroke="#193175" stroke-width="15" stroke-linecap="round" stroke-linejoin="round" stroke-miterlimit="1" data-original="#000000" opacity="1"></path><path d="M269.956 233.971h-26.87a19.02 19.02 0 0 1-15.32-7.745h0a68.4 68.4 0 0 1-13.322-40.564v-17.206c0-23.239 18.839-42.077 42.077-42.077h0c23.239 0 42.077 18.839 42.077 42.077v17.206a68.4 68.4 0 0 1-13.322 40.564h0a19.02 19.02 0 0 1-15.32 7.745M218.977 152.488h75.088M243.239 103.419a26.57 26.57 0 0 1-10.702-21.31v-.906M269.803 103.419a26.57 26.57 0 0 0 10.702-21.31v-.906" style="stroke-width:15;stroke-linecap:round;stroke-linejoin:round;stroke-miterlimit:10" fill="none" stroke="#193175" stroke-width="15" stroke-linecap="round" stroke-linejoin="round" stroke-miterlimit="1" data-original="#000000" opacity="1"></path><path d="m216.784 153.679-13.82-13.82H183.69M213.499 180.175h-19.544l-14.991 14.991M215.975 206.374l-13.82 13.82v15.439M296.258 153.679l13.82-13.82h19.339M299.543 180.175h19.544l14.991 14.991M297.068 206.374l13.819 13.82v15.439" style="stroke-width:15;stroke-linecap:round;stroke-linejoin:round;stroke-miterlimit:10" fill="none" stroke="#193175" stroke-width="15" stroke-linecap="round" stroke-linejoin="round" stroke-miterlimit="1" data-original="#000000" opacity="1"></path></g></svg>