<svg xmlns="http://www.w3.org/2000/svg" version="1.1" xmlns:xlink="http://www.w3.org/1999/xlink" width="512" height="512" x="0" y="0" viewBox="0 0 512 512" style="enable-background:new 0 0 512 512" xml:space="preserve" class=""><g><path d="M144.57 510.981h222.86c21.967 0 39.841-17.874 39.841-39.841V40.86c0-21.967-17.874-39.841-39.841-39.841H144.57c-21.967 0-39.841 17.874-39.841 39.841v430.28c.001 21.967 17.875 39.841 39.841 39.841M120.666 40.86c0-13.182 10.723-23.904 23.904-23.904h222.86c13.182 0 23.904 10.723 23.904 23.904v430.28c0 13.182-10.723 23.904-23.904 23.904H144.57c-13.182 0-23.904-10.723-23.904-23.904z" fill="#193175" opacity="1" data-original="#000000"></path><path d="M270.279 455.204h-28.558c-4.404 0-7.968 3.564-7.968 7.968s3.564 7.968 7.968 7.968h28.558c4.404 0 7.968-3.564 7.968-7.968s-3.564-7.968-7.968-7.968M196.675 56.796h77.666c4.404 0 7.968-3.564 7.968-7.968s-3.564-7.968-7.968-7.968h-77.666c-4.404 0-7.968 3.564-7.968 7.968s3.563 7.968 7.968 7.968M308.229 56.796h7.097c4.404 0 7.968-3.564 7.968-7.968s-3.564-7.968-7.968-7.968h-7.097c-4.404 0-7.968 3.564-7.968 7.968s3.563 7.968 7.968 7.968M147.348 230.656l42.525 22.813v78.968a7.97 7.97 0 0 0 4.879 7.346c39.833 16.766 81.042 17.448 122.495 0a7.97 7.97 0 0 0 4.879-7.346v-78.995l30.791-16.532v48.037c0 4.404 3.564 7.968 7.968 7.968s7.968-3.564 7.968-7.968l-.002-61.342.002-.014c0-2.471-1.488-5.564-4.202-7.019l-104.885-56.267a7.97 7.97 0 0 0-7.532 0l-104.885 56.314c-2.591 1.385-4.202 4.085-4.202 7.019s1.618 5.633 4.201 7.018M306.19 327.06c-33.725 12.979-66.655 12.979-100.38 0v-65.041l46.424 24.905a7.94 7.94 0 0 0 7.532 0l46.424-24.925zM256 176.365l73.228 39.28h-71.64c-4.404 0-7.968 3.564-7.968 7.968s3.564 7.968 7.968 7.968h71.568l-73.155 39.28-88.039-47.225z" fill="#193175" opacity="1" data-original="#000000"></path></g></svg>