<svg xmlns="http://www.w3.org/2000/svg" version="1.1" xmlns:xlink="http://www.w3.org/1999/xlink" width="512" height="512" x="0" y="0" viewBox="0 0 32 32" style="enable-background:new 0 0 512 512" xml:space="preserve"><g><path d="M17.5 4h-3a.5.5 0 0 1 0-1h3a.5.5 0 0 1 0 1M21.5 31h-11A2.503 2.503 0 0 1 8 28.5v-17a.5.5 0 0 1 1 0v17c0 .827.673 1.5 1.5 1.5h11c.827 0 1.5-.673 1.5-1.5v-17a.5.5 0 0 1 1 0v17c0 1.378-1.121 2.5-2.5 2.5" fill="#193175" opacity="1" data-original="#000000"></path><path d="M23.5 15a.5.5 0 0 1-.5-.5v-11c0-.827-.673-1.5-1.5-1.5h-11C9.673 2 9 2.673 9 3.5v11a.5.5 0 0 1-1 0v-11C8 2.122 9.121 1 10.5 1h11C22.879 1 24 2.122 24 3.5v11a.5.5 0 0 1-.5.5M26.5 6.05c-.276 0-.5-.174-.5-.45v-.1a.5.5 0 0 1 1 0c0 .276-.224.55-.5.55M26.5 8.05c-.276 0-.5-.174-.5-.45v-.1a.5.5 0 0 1 1 0c0 .276-.224.55-.5.55M26.5 10.05c-.276 0-.5-.174-.5-.45v-.1a.5.5 0 0 1 1 0c0 .276-.224.55-.5.55M5.5 22.95c-.276 0-.5-.174-.5-.45v-.1a.5.5 0 0 1 1 0c0 .276-.224.55-.5.55M5.5 24.95c-.276 0-.5-.174-.5-.45v-.1a.5.5 0 0 1 1 0c0 .276-.224.55-.5.55M5.5 26.95c-.276 0-.5-.174-.5-.45v-.1a.5.5 0 0 1 1 0c0 .276-.224.55-.5.55" fill="#193175" opacity="1" data-original="#000000"></path><path d="M24.841 27a.5.5 0 0 1-.489-.605l.33-1.53a.5.5 0 0 1 .371-.38 4.8 4.8 0 0 0 1.367-.571.5.5 0 0 1 .529.005l.99.633.613-.618-.633-.982a.5.5 0 0 1-.007-.531 4.8 4.8 0 0 0 .57-1.367.5.5 0 0 1 .378-.372l1.14-.253v-.857l-1.139-.253a.5.5 0 0 1-.378-.372 4.8 4.8 0 0 0-.57-1.367.5.5 0 0 1 .006-.53l.634-.991-.612-.612-.991.634a.5.5 0 0 1-.529.005 4.8 4.8 0 0 0-1.367-.571.5.5 0 0 1-.371-.38L24.437 14H24a.5.5 0 0 1 0-1h.84a.5.5 0 0 1 .488.395l.267 1.233q.55.167 1.071.448l1.074-.687a.5.5 0 0 1 .623.068l1.181 1.18a.5.5 0 0 1 .067.623l-.687 1.074q.281.522.448 1.073l1.235.274c.23.051.393.255.393.489v1.66a.5.5 0 0 1-.392.488l-1.235.274a5.8 5.8 0 0 1-.448 1.072l.686 1.064a.5.5 0 0 1-.065.623l-1.181 1.19a.5.5 0 0 1-.624.069l-1.074-.687a6 6 0 0 1-1.071.448l-.267 1.233a.5.5 0 0 1-.488.396" fill="#193175" opacity="1" data-original="#000000"></path><path d="M25.391 22.578a.5.5 0 0 1-.278-.915A2.002 2.002 0 0 0 23.6 18.04a.5.5 0 1 1-.201-.98Q23.694 17 24 17a2.999 2.999 0 0 1 1.669 5.493.5.5 0 0 1-.278.085M8 15a2.999 2.999 0 0 1-1.662-5.498.5.5 0 0 1 .554.832 2.002 2.002 0 0 0 1.5 3.627.5.5 0 0 1 .589.392.5.5 0 0 1-.392.588A3 3 0 0 1 8 15" fill="#193175" opacity="1" data-original="#000000"></path><path d="M8 19h-.84a.5.5 0 0 1-.488-.395l-.267-1.233a5.8 5.8 0 0 1-1.071-.448l-1.074.687a.5.5 0 0 1-.623-.068l-1.181-1.18a.5.5 0 0 1-.067-.623l.687-1.074a6 6 0 0 1-.448-1.073l-1.235-.274A.5.5 0 0 1 1 12.83v-1.66a.5.5 0 0 1 .392-.488l1.235-.274q.167-.552.448-1.072L2.39 8.271a.5.5 0 0 1 .065-.623l1.181-1.19a.5.5 0 0 1 .624-.069l1.074.687a6 6 0 0 1 1.071-.448l.267-1.233a.5.5 0 1 1 .977.211l-.33 1.53a.5.5 0 0 1-.371.38 4.8 4.8 0 0 0-1.368.571.5.5 0 0 1-.529-.005l-.99-.633-.614.618.633.982a.5.5 0 0 1 .007.531 4.8 4.8 0 0 0-.57 1.367.5.5 0 0 1-.378.372L2 11.571v.857l1.139.253a.5.5 0 0 1 .378.372c.113.472.306.932.57 1.367.1.163.098.369-.006.53l-.634.99.612.612.991-.634a.5.5 0 0 1 .529-.005c.436.265.896.457 1.367.571a.5.5 0 0 1 .371.38L7.563 18H8a.5.5 0 0 1 0 1M15.5 18.5a.499.499 0 0 1-.485-.621l1-4a.496.496 0 0 1 .606-.364.5.5 0 0 1 .364.606l-1 4a.5.5 0 0 1-.485.379M18.5 18.5a.5.5 0 0 1-.354-.853L19.793 16l-1.646-1.646a.5.5 0 0 1 .707-.707l2 2a.5.5 0 0 1 0 .707l-2 2a.5.5 0 0 1-.354.146M13.5 18.5a.5.5 0 0 1-.354-.146l-2-2a.5.5 0 0 1 0-.707l2-2a.5.5 0 0 1 .707.707L12.207 16l1.646 1.646a.5.5 0 0 1-.353.854" fill="#193175" opacity="1" data-original="#000000"></path></g></svg>