<svg id="Duo_Tone" viewBox="0 0 64 64" xmlns="http://www.w3.org/2000/svg" data-name="Duo Tone"><path d="m8 51.75h48c2.6191 0 4.75-2.1309 4.75-4.75v-3.25h-57.5v3.25c0 2.6191 2.1309 4.75 4.75 4.75z" fill="#3d8bf4"/><g fill="#034475"><path d="m7.75 8.2753c-2.5009.1331-4.5 2.1912-4.5 4.7247v29.25h4.5z"/><path d="m56.25 8.2753v33.9747h4.5v-29.25c0-2.5335-1.9991-4.5917-4.5-4.7247z"/></g><path d="m23.8917 57.75h16.2166l-1.3499-4.5h-13.5168z" fill="#3d8bf4"/><path d="m44 59.25h-24c-.4141 0-.75.3359-.75.75s.3359.75.75.75h24c.4141 0 .75-.3359.75-.75s-.3359-.75-.75-.75z" fill="#3d8bf4"/><g fill="#034475"><path d="m33.5361 13.7427c0-1.0986-.8945-1.9927-1.9932-1.9927h-3.8213v3.9858h3.8213c1.0986 0 1.9932-.894 1.9932-1.9932z"/><path d="m52 3.25h-40c-1.5166 0-2.75 1.2334-2.75 2.75v36.25h45.5v-36.25c0-1.5166-1.2334-2.75-2.75-2.75zm-25.7783 7.75c0-.4141.3359-.75.75-.75h4.5713c1.9258 0 3.4932 1.5669 3.4932 3.4927 0 1.464-.9074 2.7159-2.1873 3.2346l2.0369 2.7156c.249.3315.1816.8018-.1494 1.0503-.1348.1011-.293.1499-.4492.1499-.2285 0-.4541-.1035-.6006-.2998l-2.5183-3.3574h-3.4465v2.9072c0 .4141-.3359.75-.75.75s-.75-.3359-.75-.75v-9.1431zm-5.6504-.75h1.8291c.4141 0 .75.3359.75.75s-.3359.75-.75.75h-1.8291c-2.1074 0-3.8213 1.7144-3.8213 3.8213s1.7139 3.8218 3.8213 3.8218h1.8291c.4141 0 .75.3359.75.75s-.3359.75-.75.75h-1.8291c-2.9346 0-5.3213-2.3872-5.3213-5.3218s2.3867-5.3213 5.3213-5.3213zm11.4287 23.5h-16c-.4141 0-.75-.3359-.75-.75s.3359-.75.75-.75h16c.4141 0 .75.3359.75.75s-.3359.75-.75.75zm16 0h-10c-.4141 0-.75-.3359-.75-.75s.3359-.75.75-.75h10c.4141 0 .75.3359.75.75s-.3359.75-.75.75zm0-6h-32c-.4141 0-.75-.3359-.75-.75s.3359-.75.75-.75h32c.4141 0 .75.3359.75.75s-.3359.75-.75.75zm.75-7.6069c0 .4141-.3359.75-.75.75s-.75-.3359-.75-.75v-7.0713l-3.2451 3.894c-.2852.3428-.8672.3428-1.1523 0l-3.2451-3.894v7.0713c0 .4141-.3359.75-.75.75s-.75-.3359-.75-.75v-9.1431c0-.3159.1982-.5977.4951-.7051.2949-.106.6289-.0171.8311.2251l3.9951 4.7944 3.9951-4.7944c.2021-.2432.5381-.3315.8311-.2251.2969.1074.4951.3892.4951.7051v9.1431z"/></g></svg>