<svg id="Layer_1" enable-background="new 0 0 512.002 512.002" height="512" viewBox="0 0 512.002 512.002" width="512" xmlns="http://www.w3.org/2000/svg"><g><g clip-rule="evenodd" fill-rule="evenodd"><path d="m303.455 222.032-63.641-63.641c-13.553 32.74-21.726 50.01-46.569 74.854l35.355 35.355c24.844-24.842 42.115-33.014 74.855-46.568z" fill="#fff"/><path d="m228.601 268.601-35.355-35.355-14.143 14.142c-7.778 7.778-7.778 20.506.001 28.284l7.071 7.071c7.778 7.778 20.505 7.778 28.284 0z" fill="#ff5d7d"/><path d="m303.455 222.032c-32.74 13.554-50.011 21.725-74.854 46.569l-14.142 14.142c-7.778 7.778-20.506 7.778-28.284 0l-7.071-7.071c-7.779-7.779-7.779-20.506-.001-28.284l14.143-14.142c24.843-24.844 33.015-42.115 46.569-74.854zm72.546-172.032h-240v320h240z" fill="#ffc144"/><path d="m136.001 50h240v320h-240zm260-40h-280c-11 0-19.999 9-19.999 20v360c0 11 9 20 19.999 20h280.001c11 0 20-9 20-20v-360c-.001-11-9.001-20-20.001-20z" fill="#b278d3"/><path d="m396.001 457.001h-280c-11 0-19.999 9-19.999 20v25h320v-25c-.001-11-9.001-20-20.001-20z" fill="#b278d3"/><path d="m213.506 410h84.991v47.001h-84.991z" fill="#d1aee5"/></g><g><path d="m396.001 420c16.542 0 30-13.458 30-30v-360c0-16.542-13.458-30-30-30h-280c-16.542 0-30 13.458-30 30v360c0 16.542 13.458 30 30 30h87.505v27.001h-87.505c-16.542 0-30 13.458-30 30v25c0 5.523 4.478 10 10 10h320c5.522 0 10-4.477 10-10v-25c0-16.542-13.458-30-30-30h-87.504v-27.001zm-290-30v-360c0-5.514 4.486-10 10-10h280c5.514 0 10 4.486 10 10v360c0 5.514-4.486 10-10 10h-280c-5.514 0-10-4.486-10-10zm300 87.001v15h-300v-15c0-5.514 4.486-10 10-10h280c5.514 0 10 4.486 10 10zm-117.504-30h-64.991v-27.001h64.991z"/><path d="m376.001 40h-240c-5.522 0-10 4.477-10 10v320c0 5.523 4.478 10 10 10h74.997c13.254-.492 13.244-19.513 0-20h-64.997v-300h220v300h-65.003c-13.254.492-13.244 19.513 0 20h75.003c5.522 0 10-4.477 10-10v-320c0-5.523-4.478-10-10-10z"/><path d="m242.876 268.735c19.244-17.756 34.347-25.02 64.404-37.463 3.086-1.278 5.331-4.012 5.982-7.288.652-3.276-.375-6.661-2.736-9.023l-63.641-63.64c-2.361-2.361-5.744-3.389-9.023-2.736-3.275.652-6.01 2.896-7.287 5.982-13.945 33.686-21.386 48.588-44.379 71.585-.007.007-.015.015-.022.023l-14.142 14.142c-11.697 11.697-11.697 30.729 0 42.427l7.071 7.071c11.128 11.607 31.298 11.606 42.427 0l7.07-7.07 21.214 21.214c3.906 3.905 10.237 3.905 14.143 0 3.905-3.905 3.905-10.237 0-14.143zm-35.488 6.937c-3.683 3.847-10.458 3.848-14.142 0l-7.071-7.071c-3.848-3.684-3.848-10.458 0-14.142l7.07-7.07 21.214 21.213zm-.135-42.56c17.838-19.299 26.617-35.48 36.003-57.136l42.615 42.614c-21.656 9.386-37.837 18.166-57.137 36.003z"/><path d="m305.525 142.179-14.142 14.142c-3.905 3.905-3.905 10.237 0 14.142 3.906 3.905 10.237 3.905 14.143 0l14.142-14.142c3.905-3.905 3.905-10.237 0-14.142-3.906-3.906-10.236-3.905-14.143 0z"/><path d="m269.923 152.435c4.415 0 8.457-2.947 9.653-7.415l5.176-19.319c1.43-5.335-1.736-10.818-7.071-12.247-5.336-1.431-10.818 1.737-12.247 7.071l-5.176 19.319c-1.43 5.335 1.736 10.818 7.071 12.247.867.233 1.737.344 2.594.344z"/><path d="m309.755 194.518c1.41 5.379 7.056 8.506 12.247 7.071l19.319-5.176c5.335-1.429 8.501-6.913 7.071-12.247-1.43-5.335-6.916-8.5-12.247-7.071l-19.319 5.176c-5.335 1.429-8.501 6.913-7.071 12.247z"/><path d="m256.001 360h-.007c-5.522 0-9.996 4.477-9.996 10 .492 13.249 19.514 13.248 20.003 0 0-5.523-4.478-10-10-10z"/></g></g></svg>