<svg id="Layer_1" enable-background="new 0 0 512 512" viewBox="0 0 512 512" xmlns="http://www.w3.org/2000/svg" xmlns:xlink="http://www.w3.org/1999/xlink"><linearGradient id="SVGID_1_" gradientUnits="userSpaceOnUse" x1="256" x2="256" y1="475.813" y2="36.188"><stop offset="0" stop-color="#a630fe"/><stop offset=".508" stop-color="#7536fe"/><stop offset="1" stop-color="#0045ff"/></linearGradient><path d="m498.97 403.95h-25.13v-267.09c0-9.93-8.08-18.01-18.01-18.01h-84.15l3.34-6.56c3.72-7.25 2.35-16-3.42-21.77l-22-21.97c-5.72-5.77-14.45-7.17-21.74-3.48l-19.1 9.74c-.85.43-1.53.44-2.42.04-2.93-1.34-5.86-2.55-8.7-3.6-.89-.34-1.35-.82-1.64-1.72l-6.63-20.4c-2.5-7.74-9.65-12.95-17.8-12.95h-31.15c-8.1 0-15.24 5.19-17.79 12.93l-6.63 20.42c-.29.9-.76 1.38-1.61 1.7-2.85 1.05-5.79 2.26-8.74 3.61-.88.4-1.55.39-2.38-.02l-19.15-9.77c-7.37-3.71-15.89-2.34-21.7 3.47l-22.03 22c-5.77 5.77-7.14 14.51-3.43 21.74l3.35 6.59h-84.14c-9.93 0-18.01 8.08-18.01 18.01v197.92c0 4.42 3.58 8.01 8.01 8.01s8.01-3.58 8.01-8.01v-197.92c0-1.08.92-2 2-2h90.08c-1.13 2.5-2.2 5.05-3.16 7.66-.31.86-.79 1.31-1.7 1.61l-20.36 6.63c-1.27.41-2.46.95-3.58 1.6h-32.77c-7.18 0-13.03 5.83-13.03 13v208.09c0 7.18 5.84 13.03 13.03 13.03h342.62c7.18 0 13.03-5.84 13.03-13.03v-208.1c0-7.17-5.84-13-13.03-13h-32.75c-1.12-.64-2.31-1.19-3.58-1.59l-20.39-6.63c-.9-.29-1.38-.74-1.7-1.64-.91-2.48-1.96-5.03-3.11-7.63h90.05c1.08 0 2 .92 2 2v267.09h-146.26-111.14-146.26v-47.18c0-4.42-3.58-8.01-8.01-8.01s-8.01 3.58-8.01 8.01v47.18h-25.1c-7.2 0-13.05 5.86-13.05 13.05v22.88c0 19.81 16.12 35.93 35.93 35.93h440.13c19.81 0 35.93-16.12 35.93-35.93v-22.88c.01-7.19-5.84-13.05-13.02-13.05zm-74.65-33.5h-336.64v-202.08h20.42c0 .06-.01.12-.01.18v31.12c0 8.11 5.19 15.27 12.94 17.82l20.38 6.6c.89.29 1.38.76 1.7 1.64 1.09 2.98 2.33 5.94 3.64 8.74.4.86.38 1.52-.06 2.38l-9.71 19.08c-3.72 7.25-2.35 16 3.42 21.77l22.02 21.99c5.82 5.82 14.34 7.18 21.75 3.45l19.07-9.74c.86-.43 1.53-.44 2.41-.04 2.94 1.35 5.88 2.56 8.69 3.59.9.34 1.37.82 1.66 1.72l6.64 20.44c2.54 7.72 9.69 12.9 17.78 12.9h31.15c8.14 0 15.3-5.2 17.79-12.93l6.64-20.38c.29-.9.76-1.38 1.61-1.7 2.85-1.05 5.79-2.26 8.74-3.61.87-.4 1.56-.39 2.38.03l19.15 9.76c7.27 3.69 16 2.28 21.69-3.46l22.03-22c5.77-5.77 7.14-14.51 3.43-21.74l-9.71-19.08c-.44-.86-.45-1.52-.04-2.42 1.35-2.94 2.56-5.88 3.61-8.74.32-.87.81-1.34 1.7-1.63l20.42-6.62c7.72-2.54 12.9-9.7 12.9-17.81v-31.12c0-.06-.01-.12-.01-.18h20.42zm-38.26-204.45c1.18.38 1.84 1.29 1.84 2.55v31.12c0 1.25-.69 2.2-1.86 2.59l-20.38 6.61c-5.59 1.81-9.78 5.85-11.79 11.35-.91 2.47-1.96 5.03-3.11 7.53-2.48 5.29-2.38 11.1.29 16.38l9.74 19.13c.57 1.1.39 2.24-.49 3.12l-22.05 22.02c-.86.87-1.99 1.04-3.09.49l-19.16-9.75c-5.2-2.65-10.99-2.76-16.32-.32-2.57 1.18-5.12 2.23-7.64 3.16-5.47 2.05-9.47 6.23-11.27 11.77l-6.64 20.42c-.38 1.18-1.31 1.85-2.56 1.85h-31.15c-1.24 0-2.17-.69-2.56-1.87l-6.63-20.41c-1.8-5.54-5.8-9.72-11.32-11.79-2.47-.91-5.02-1.96-7.59-3.14-2.54-1.17-5.2-1.75-7.85-1.75-2.88 0-5.76.69-8.49 2.07l-19.07 9.73c-1.15.58-2.28.4-3.18-.5l-22.02-21.99c-.88-.88-1.06-2.02-.48-3.15l9.71-19.08c2.68-5.21 2.8-11.02.33-16.41-1.14-2.45-2.2-4.98-3.13-7.52-2.02-5.51-6.2-9.54-11.8-11.36l-20.34-6.58c-1.2-.4-1.89-1.34-1.89-2.6v-31.12c0-1.24.67-2.18 1.87-2.56l20.38-6.63c5.61-1.82 9.8-5.86 11.79-11.35.94-2.55 1.99-5.09 3.15-7.56 2.47-5.33 2.34-11.15-.33-16.35l-9.74-19.13c-.57-1.1-.39-2.24.49-3.12l22.03-22c.9-.9 2.03-1.08 3.14-.51l19.14 9.77c5.21 2.63 11 2.73 16.29.3 2.57-1.18 5.13-2.23 7.65-3.16 5.47-2.05 9.47-6.23 11.27-11.77l6.62-20.38c.4-1.2 1.33-1.89 2.57-1.89h31.15c1.25 0 2.18.67 2.56 1.87l6.63 20.41c1.8 5.54 5.8 9.72 11.27 11.77.02.01.03.01.05.02 2.47.91 5.02 1.96 7.59 3.14 5.31 2.43 11.09 2.33 16.33-.31l19.12-9.74c1.11-.56 2.25-.39 3.14.51l22.02 21.99c.88.88 1.06 2.02.48 3.15l-9.73 19.13c-2.65 5.26-2.75 11.07-.3 16.29 1.17 2.57 2.23 5.12 3.13 7.56 2 5.52 6.19 9.56 11.79 11.38zm-82.49 253.97v4.83c0 2.62-2.21 4.83-4.83 4.83h-85.46c-2.62 0-4.83-2.21-4.83-4.83v-4.83zm192.41 19.91c0 10.98-8.93 19.91-19.91 19.91h-440.14c-10.98 0-19.91-8.93-19.91-19.91v-19.91h176.4v4.83c0 11.5 9.35 20.85 20.85 20.85h85.46c11.5 0 20.85-9.35 20.85-20.85v-4.83h176.4zm-218.75-266.71c0-11.73-9.53-21.27-21.25-21.27h-18.08c-4.42 0-8.01 3.58-8.01 8.01v48.42c0 4.42 3.58 8.01 8.01 8.01s8.01-3.58 8.01-8.01v-13.88h3.05l10.33 17.88c1.48 2.57 4.17 4 6.94 4 1.36 0 2.74-.35 4-1.08 3.83-2.21 5.14-7.11 2.93-10.94l-7.16-12.38c6.68-3.59 11.23-10.65 11.23-18.76zm-31.32-5.26h10.08c2.88 0 5.23 2.36 5.23 5.26 0 2.85-2.4 5.26-5.23 5.26h-10.08zm70.23-16.01h-18.06c-4.42 0-8.01 3.58-8.01 8.01v48.42c0 4.42 3.58 8.01 8.01 8.01s8.01-3.58 8.01-8.01v-13.88h10.05c11.73 0 21.27-9.54 21.27-21.27s-9.54-21.28-21.27-21.28zm0 26.53h-10.05v-10.52h10.05c2.9 0 5.26 2.36 5.26 5.26s-2.36 5.26-5.26 5.26zm-125.54-10.52v8.19h18.69c4.42 0 8.01 3.58 8.01 8.01s-3.58 8.01-8.01 8.01h-18.69v8.19h18.69c4.42 0 8.01 3.58 8.01 8.01s-3.58 8.01-8.01 8.01h-26.7c-4.42 0-8.01-3.58-8.01-8.01v-48.42c0-4.42 3.58-8.01 8.01-8.01h26.7c4.42 0 8.01 3.58 8.01 8.01s-3.58 8.01-8.01 8.01z" fill="url(#SVGID_1_)"/></svg>