<?xml version="1.0" encoding="UTF-8"?>
<svg version="1.1" xmlns="http://www.w3.org/2000/svg" width="50" height="50">
<path d="M0 0 C2.34765625 0.46875 2.34765625 0.46875 4.91015625 2.34375 C6.87256518 6.60985638 7.57677049 10.77190798 7.34765625 15.46875 C6.68765625 16.78875 6.02765625 18.10875 5.34765625 19.46875 C0.06765625 19.46875 -5.21234375 19.46875 -10.65234375 19.46875 C-13.21329797 14.34684156 -12.83275666 10.96255142 -11.65234375 5.46875 C-9.10528742 -0.06832897 -5.65405571 -0.33308134 0 0 Z " fill="#000000" transform="translate(38.65234375,28.53125)"/>
<path d="M0 0 C1.125 6.75 1.125 6.75 0 9 C0.99 9.33 1.98 9.66 3 10 C4.52160014 13.6037898 5 16.05220686 5 20 C4.34 20 3.68 20 3 20 C3 20.99 3 21.98 3 23 C-1.62 23 -6.24 23 -11 23 C-11 22.01 -11 21.02 -11 20 C-11.66 20 -12.32 20 -13 20 C-12.53199289 15.94393835 -12.12046792 12.53411321 -10 9 C-9.34 9 -8.68 9 -8 9 C-8 8.34 -8 7.68 -8 7 C-9.65 7 -11.3 7 -13 7 C-12.875 4.6875 -12.875 4.6875 -12 2 C-7.72610273 -0.98178879 -4.99565799 -1.30838662 0 0 Z " fill="#000000" transform="translate(21,10)"/>
<path d="M0 0 C8.58 0 17.16 0 26 0 C26 9.24 26 18.48 26 28 C25.34 28.33 24.68 28.66 24 29 C24 20.09 24 11.18 24 2 C16.74 2 9.48 2 2 2 C2 13.22 2 24.44 2 36 C4.31 36 6.62 36 9 36 C9 35.01 9 34.02 9 33 C9.99 33 10.98 33 12 33 C12 33.99 12 34.98 12 36 C12.66 36 13.32 36 14 36 C14 35.01 14 34.02 14 33 C14.99 33 15.98 33 17 33 C17 33.99 17 34.98 17 36 C18.32 36 19.64 36 21 36 C21 36.66 21 37.32 21 38 C14.07 38 7.14 38 0 38 C0 25.46 0 12.92 0 0 Z " fill="#000000" transform="translate(4,2)"/>
<path d="M0 0 C0.845625 0.433125 1.69125 0.86625 2.5625 1.3125 C3.92375 1.68375 3.92375 1.68375 5.3125 2.0625 C6.42625 2.68125 6.42625 2.68125 7.5625 3.3125 C8.203125 6.390625 8.203125 6.390625 8.5625 9.3125 C6.43777424 9.36636629 4.31266348 9.40523071 2.1875 9.4375 C0.41246094 9.47230469 0.41246094 9.47230469 -1.3984375 9.5078125 C-4.4375 9.3125 -4.4375 9.3125 -6.4375 7.3125 C-6.8125 4.875 -6.8125 4.875 -6.4375 2.3125 C-4.20421322 -0.25164409 -3.33857722 -0.94164998 0 0 Z " fill="#000000" transform="translate(37.4375,18.6875)"/>
</svg>
