<svg id="semibold" enable-background="new 0 0 32 32" viewBox="0 0 32 32" xmlns="http://www.w3.org/2000/svg"><g><g><path d="m31 6h-20c-.6 0-1-.4-1-1v-2c0-1.7 1.3-3 3-3h16c1.7 0 3 1.3 3 3v2c0 .6-.4 1-1 1z"/></g></g><g><path d="m1 32c-.1 0-.2 0-.3-.1-.5-.2-.8-.8-.6-1.3l10-28c.2-.5.8-.8 1.3-.6s.8.8.6 1.3l-10 28c-.2.4-.6.7-1 .7z"/></g><g><path d="m31 28h-20c-.6 0-1-.4-1-1s.4-1 1-1h20c.6 0 1 .4 1 1s-.4 1-1 1z"/></g><g><path d="m31 6h-20c-.6 0-1-.4-1-1s.4-1 1-1h20c.6 0 1 .4 1 1s-.4 1-1 1z"/></g><g><path d="m11 25h-7.5c-.6 0-1-.4-1-1s.4-1 1-1h7.5c.6 0 1 .4 1 1s-.4 1-1 1z"/></g><g><path d="m21 21h-2c-.6 0-1-.4-1-1s.4-1 1-1h2c.6 0 1-.4 1-1s-.4-1-1-1c-1.7 0-3-1.3-3-3s1.3-3 3-3h2c.6 0 1 .4 1 1s-.4 1-1 1h-2c-.6 0-1 .4-1 1s.4 1 1 1c1.7 0 3 1.3 3 3s-1.3 3-3 3z"/></g><g><path d="m21 13c-.6 0-1-.4-1-1v-2c0-.6.4-1 1-1s1 .4 1 1v2c0 .6-.4 1-1 1z"/></g><g><path d="m21 23c-.6 0-1-.4-1-1v-2c0-.6.4-1 1-1s1 .4 1 1v2c0 .6-.4 1-1 1z"/></g><g><path d="m31 32c-.6 0-1-.4-1-1v-26c0-.6.4-1 1-1s1 .4 1 1v26c0 .6-.4 1-1 1z"/></g><g><path d="m11 32c-.6 0-1-.4-1-1v-26c0-.6.4-1 1-1s1 .4 1 1v26c0 .6-.4 1-1 1z"/></g></svg>