<svg id="Layer_1" enable-background="new 0 0 512 512" viewBox="0 0 512 512" xmlns="http://www.w3.org/2000/svg"><path d="m432.352 113.923h-77.807l20.805-16.469c1.917-1.518 3.035-3.828 3.035-6.272v-13.793c9.234-3.297 15.863-12.126 15.863-22.479 0-13.158-10.705-23.863-23.863-23.863s-23.863 10.705-23.863 23.863c0 10.352 6.629 19.182 15.863 22.479v9.923l-27.167 21.504-7.211-7.21c-2.34-2.339-5.878-2.995-8.904-1.654l-13.87 6.16c-6.85-3.829-14.098-6.835-21.633-8.97l-5.448-14.153c-1.188-3.088-4.156-5.126-7.466-5.126h-6.686v-28.521c9.234-3.297 15.863-12.127 15.863-22.479 0-13.158-10.706-23.863-23.863-23.863s-23.863 10.705-23.863 23.862c0 10.353 6.629 19.183 15.863 22.479v28.521h-6.686c-3.309 0-6.277 2.038-7.466 5.126l-5.448 14.154c-7.535 2.135-14.784 5.141-21.633 8.97l-13.87-6.16c-3.024-1.345-6.564-.686-8.904 1.654l-7.211 7.21-27.167-21.504v-9.923c9.234-3.297 15.863-12.126 15.863-22.479 0-13.158-10.705-23.863-23.863-23.863s-23.863 10.705-23.863 23.863c0 10.352 6.629 19.182 15.863 22.479v13.793c0 2.444 1.118 4.755 3.035 6.272l20.805 16.469h-77.807c-22.079 0-40.041 17.962-40.041 40.041v220.426c0 22.079 17.962 40.041 40.041 40.041h102.857v34.906h-40.771c-19.478 0-35.324 13.382-35.324 29.831v21.832c0 4.418 3.582 8 8 8h283.18c4.418 0 8-3.582 8-8v-21.832c0-16.449-15.846-29.831-35.324-29.831h-40.771v-34.906h102.857c22.078 0 40.041-17.962 40.041-40.041v-220.426c0-22.079-17.963-40.041-40.041-40.041zm-61.967-66.876c4.335 0 7.863 3.527 7.863 7.863 0 3.262-1.998 6.065-4.834 7.254h-6.058c-2.836-1.188-4.834-3.992-4.834-7.254 0-4.336 3.528-7.863 7.863-7.863zm-114.385-28.047c4.335 0 7.863 3.527 7.863 7.862 0 4.336-3.527 7.863-7.863 7.863s-7.863-3.527-7.863-7.863c0-4.335 3.527-7.862 7.863-7.862zm-114.385 28.047c4.335 0 7.863 3.527 7.863 7.863 0 4.335-3.527 7.862-7.863 7.862s-7.863-3.527-7.863-7.862c0-4.336 3.528-7.863 7.863-7.863zm2.991 125.183c-3.088 1.188-5.126 4.156-5.126 7.466v6.687h-19.234c-3.296-9.235-12.127-15.863-22.479-15.863-5.849 0-11.211 2.119-15.366 5.625v-19.429h79.806c-1.323 3.291-2.48 6.647-3.449 10.067zm-38.977 22.153c0 4.335-3.527 7.862-7.863 7.862s-7.863-3.527-7.863-7.862c0-4.336 3.527-7.863 7.863-7.863s7.863 3.527 7.863 7.863zm-23.228 18.237c4.155 3.506 9.516 5.625 15.366 5.625 10.352 0 19.182-6.628 22.479-15.862h19.234v6.687c0 3.31 2.038 6.277 5.126 7.466l14.148 5.446c2.137 7.541 5.142 14.792 8.971 21.641l-6.158 13.864c-1.344 3.024-.686 6.563 1.654 8.904l20.77 20.77c2.34 2.339 5.879 2.998 8.904 1.654l13.871-6.16c6.851 3.829 14.098 6.834 21.633 8.969l5.448 14.153c1.188 3.088 4.156 5.126 7.466 5.126h29.373c3.31 0 6.277-2.038 7.466-5.126l5.446-14.148c7.54-2.136 14.79-5.141 21.641-8.972l13.864 6.158c3.025 1.344 6.564.686 8.904-1.654l20.77-20.77c2.34-2.341 2.998-5.88 1.655-8.904l-6.16-13.871c3.829-6.85 6.833-14.097 8.969-21.633l14.153-5.448c3.088-1.188 5.126-4.156 5.126-7.466v-6.686h19.234c3.296 9.234 12.126 15.862 22.479 15.862 5.85 0 11.212-2.12 15.367-5.626v131.839h-347.199zm323.969-18.237c0-4.336 3.527-7.863 7.862-7.863 4.336 0 7.863 3.527 7.863 7.863 0 4.335-3.527 7.862-7.863 7.862-4.335 0-7.862-3.527-7.862-7.862zm23.23-18.237c-4.155-3.507-9.517-5.626-15.367-5.626-10.352 0-19.182 6.629-22.479 15.863h-19.234v-6.687c0-3.31-2.038-6.277-5.126-7.466l-14.148-5.445c-.969-3.421-2.126-6.778-3.449-10.069h79.803zm-238.178-59.342 12.603 5.597c2.412 1.071 5.195.884 7.441-.499 7.687-4.733 16.023-8.189 24.777-10.273 2.566-.61 4.666-2.446 5.614-4.908l4.95-12.857h18.387l4.949 12.857c.947 2.462 3.047 4.298 5.614 4.908 8.754 2.084 17.09 5.54 24.777 10.273 2.246 1.384 5.03 1.571 7.441.499l12.603-5.597 13.002 13.001-5.595 12.598c-1.071 2.411-.884 5.195.5 7.442 4.733 7.686 8.19 16.023 10.274 24.783.61 2.566 2.447 4.667 4.909 5.614l12.853 4.947v18.387l-12.857 4.949c-2.461.947-4.298 3.048-4.909 5.613-2.083 8.755-5.54 17.091-10.272 24.777-1.383 2.246-1.57 5.03-.5 7.441l5.597 12.604-13.001 13.001-12.597-5.595c-2.412-1.071-5.196-.883-7.442.5-7.686 4.733-16.024 8.189-24.782 10.272-2.566.61-4.667 2.447-5.615 4.909l-4.948 12.854h-18.387l-4.949-12.857c-.947-2.462-3.047-4.298-5.614-4.908-8.753-2.083-17.09-5.539-24.778-10.272-2.246-1.383-5.028-1.569-7.441-.499l-12.603 5.597-13.002-13.001 5.595-12.598c1.071-2.411.884-5.195-.5-7.442-4.731-7.683-8.188-16.021-10.274-24.784-.611-2.566-2.447-4.666-4.909-5.613l-12.853-4.947v-18.387l12.856-4.949c2.461-.947 4.298-3.048 4.909-5.613 2.084-8.758 5.54-17.094 10.273-24.778 1.383-2.247 1.57-5.031.499-7.442l-5.596-12.602zm198.168 362.364v13.832h-267.18v-13.832c0-7.497 8.849-13.831 19.324-13.831h228.532c10.475 0 19.324 6.334 19.324 13.831zm-76.095-29.831h-114.99v-34.906h114.99zm142.898-74.947c0 13.256-10.785 24.041-24.041 24.041h-352.704c-13.256 0-24.041-10.785-24.041-24.041v-220.426c0-13.256 10.785-24.041 24.041-24.041h81.471c.112.459.253.914.449 1.356l4.191 9.437h-86.915c-6.861 0-12.443 5.582-12.443 12.443v199.299c0 4.418 3.582 8 8 8h363.199c4.418 0 8-3.582 8-8v-199.299c0-6.861-5.583-12.443-12.444-12.443h-86.916l4.192-9.438c.196-.442.337-.897.449-1.355h81.471c13.256 0 24.041 10.785 24.041 24.041zm-200.393-119.508c33.359 0 60.5-27.14 60.5-60.499s-27.14-60.5-60.5-60.5-60.5 27.141-60.5 60.5 27.14 60.499 60.5 60.499zm0-104.999c24.537 0 44.5 19.963 44.5 44.5s-19.962 44.499-44.5 44.499-44.5-19.962-44.5-44.499 19.963-44.5 44.5-44.5z"/></svg>