<svg id="Line" viewBox="0 0 64 64" xmlns="http://www.w3.org/2000/svg"><path d="m4.5 47c.03159 1.30501 1.96875 1.32601 2.00001-.00005v-37.99995c0-1.6543 1.3457-3 3-3h5v2c0 1.6543 1.3457 3 3 3h8c1.6543 0 3-1.3457 3-3v-2h5c1.6543 0 3 1.3457 3 3v6.03455c-5.50153.33112-10.12256 4.14655-11.4873 9.45752-.49689-.09656-1.00061-.15906-1.5127-.15906-10.60749.43636-10.6151 15.56018.00006 16.00002-.00006-.00002 8.99994-.00002 8.99994-.00002.55273 0 1-.44727 1-1s-.44727-1-1-1h-9c-3.30859 0-6-2.69141-6-6-.07305-4.12261 4.28901-7.09439 8.10456-5.63174.479.04901.92711-.21229 1.11124-.65834.84021-5.20132 5.25808-9.05186 10.55864-9.04291 5.91177-.08521 10.9614 5.11455 10.66102 11.04697-.03436.57193.42791 1.0569.99911 1.05555 1.74071-.09224.81621-3.12129.69175-4.23124 4.06231-.71497 7.91422 2.55757 7.87364 6.68439.00004 3.73728-3.04 6.77732-6.7773 6.77732h-12.22266v-8.33301c-.02509-1.31805-1.97726-1.31223-2 .00004 0-.00004 0 15.5859 0 15.5859l-1.29297-1.29297c-.39062-.39062-1.02344-.39062-1.41406 0s-.39062 1.02344 0 1.41406l2.99872 2.99872c.3713.38557 1.04517.38949 1.41662-.00002 0 .00002 2.99872-2.9987 2.99872-2.9987.91835-.94037-.48391-2.32881-1.41411-1.41403.00004-.00003-1.29293 1.29293-1.29293 1.29293v-5.25293h12.22266c11.63607-.47829 11.64914-17.07149-.00007-17.55568-.57318.00002-1.13464.07509-1.6881.18441-1.75885-4.41919-5.81287-7.44635-10.53448-7.89728v-6.06445c0-2.75684-2.24316-5-5-5h-6c-.55273 0-1 .44727-1 1v3c0 .55176-.44824 1-1 1h-8c-.55176 0-1-.44824-1-1v-2h6c1.31577-.01483 1.31101-1.98373-.00004-1.99999h-12.99996c-2.75684 0-5 2.24316-5 5v38z"/><path d="m4.5 55c0 2.75684 2.24316 5 5 5h24c2.75684 0 5-2.24316 5-5v-2.09961c0-.55273-.44727-1-1-1s-1 .44727-1 1v2.09961c0 1.6543-1.3457 3-3 3h-24c-1.6543 0-3-1.3457-3-3v-3c0-.55273-.44727-1-1-1s-1 .44727-1 1z"/></svg>