<svg id="Capa_1" enable-background="new 0 0 512 512" height="512" viewBox="0 0 512 512" width="512" xmlns="http://www.w3.org/2000/svg"><g><path d="m360.209 0h-208.418c-21.816 0-39.565 17.749-39.565 39.564v336.677c0 21.816 17.749 39.564 39.565 39.564h16.548v81.195h-24.564c-4.142 0-7.5 3.358-7.5 7.5s3.358 7.5 7.5 7.5h224.451c4.142 0 7.5-3.358 7.5-7.5s-3.358-7.5-7.5-7.5h-24.564v-81.194h16.548c21.816 0 39.565-17.748 39.565-39.564v-336.678c-.001-21.815-17.749-39.564-39.566-39.564zm-31.548 497h-145.322v-81.194h145.322zm56.113-120.758c0 13.545-11.02 24.564-24.565 24.564h-208.418c-13.545 0-24.565-11.02-24.565-24.564v-336.678c0-13.545 11.02-24.564 24.565-24.564h208.419c13.545 0 24.565 11.02 24.565 24.564v336.678z"/><path d="m367.709 103.694c0-4.142-3.358-7.5-7.5-7.5s-7.5 3.358-7.5 7.5v133.168l-8.532 8.532-35.465-35.465c-9.176-9.175-24.105-9.175-33.28 0l-15.424 15.425-43.481-43.481c-4.445-4.445-10.354-6.892-16.64-6.892s-12.195 2.448-16.64 6.893l-23.957 23.957v-158.767h193.419v24.565c0 4.142 3.358 7.5 7.5 7.5s7.5-3.358 7.5-7.5v-32.065c0-4.142-3.358-7.5-7.5-7.5h-208.418c-4.142 0-7.5 3.358-7.5 7.5v336.677c0 4.142 3.358 7.5 7.5 7.5h208.419c4.142 0 7.5-3.358 7.5-7.5v-272.547zm-81.67 116.841c3.327-3.326 8.74-3.327 12.067 0l35.465 35.465-15.425 15.425c-1.612 1.612-3.754 2.499-6.033 2.499s-4.421-.888-6.033-2.499l-35.465-35.465zm-10.9 148.207-37.884-37.884c-2.928-2.929-7.677-2.929-10.606 0s-2.929 7.677 0 10.606l27.277 27.278h-94.635v-45.506l18.531-18.531c1.612-1.612 3.754-2.499 6.033-2.499s4.421.888 6.033 2.499l12.712 12.712c2.929 2.929 7.678 2.929 10.606 0 2.929-2.929 2.929-7.677 0-10.606l-12.712-12.712c-4.445-4.445-10.354-6.892-16.64-6.892s-12.195 2.448-16.64 6.893l-7.925 7.925v-74.981l34.563-34.563c1.612-1.612 3.754-2.499 6.033-2.499s4.421.888 6.033 2.499l89.553 89.553c4.445 4.445 10.354 6.892 16.64 6.892s12.195-2.448 16.64-6.893l23.957-23.957v110.668h-77.569z"/><path d="m216.436 119.726c0 21.816 17.749 39.564 39.564 39.564s39.564-17.749 39.564-39.564-17.748-39.565-39.564-39.565-39.564 17.749-39.564 39.565zm64.128 0c0 13.545-11.02 24.564-24.564 24.564s-24.564-11.02-24.564-24.564 11.019-24.565 24.564-24.565 24.564 11.02 24.564 24.565z"/></g></svg>