<svg clip-rule="evenodd" fill-rule="evenodd" height="1.707in" image-rendering="optimizeQuality" shape-rendering="geometricPrecision" text-rendering="geometricPrecision" viewBox="0 0 1707 1707" width="1.707in" xmlns="http://www.w3.org/2000/svg"><g id="Layer_x0020_1"><path d="m119 378v65h1469v-65zm1557 1100h-1645c-40 0-40-60 0-60h43l218-365h-203c-17 0-30-13-30-30v-125c0-17 13-30 30-30h457l-218-365h-239c-17 0-30-13-30-30v-125c0-17 13-30 30-30h242l245-306c8-9 21-13 33-9l429 153c23-20 174-149 187-153 10-4 21-1 29 6l374 311c12 4 20 15 20 28v125c0 17-13 30-30 30h-204l222 371c7 5 12 14 12 24v125c0 17-13 30-30 30h-204l218 365c30 0 74-8 74 30 0 16-13 30-30 30zm-1532-60h402l-201-337zm508 0h402l-201-337zm508 0h402l-201-337zm323 174h-1259c-40 0-40-60 0-60h1259c39 0 39 60 0 60zm-148 113h-963c-40 0-40-60 0-60h963c39 0 39 60 0 60zm-27-652h-402l201 336zm-508 0h-402l201 336zm-148-185h402l-201-337zm508 0h402l-201-337zm-1041 125h1469v-65h-1469zm279-490 201 336 201-336zm508 0 201 336 201-336zm626-185-298-248-298 248zm-690 0 142-118-375-133-201 251z"/></g></svg>