<?xml version="1.0"?>
<svg xmlns="http://www.w3.org/2000/svg" id="Layer_3" data-name="Layer 3" viewBox="0 0 100 100"><path d="M51.52,20.91H55.1V15.2H51.52Zm42.57,39a6.92,6.92,0,0,0-9.49-2.65l-1.84,1.12V43H72.55V5H42.75V20.5L26.62,25.3V65.18l-6.94,4-.62-.91a4.19,4.19,0,0,0-5.51-1.43L5.89,71.19a2,2,0,0,0-.71,2.45,1.76,1.76,0,0,0,2.45.72L15.29,70a.51.51,0,0,1,.71.1L29.78,94A1.81,1.81,0,0,0,33,92.31l-11.54-20L32,66.2c3.67-2.15,6.22-1.94,10.31-.72L62.86,71a3.35,3.35,0,0,1,2.45,4.08c-.51,1.94-2.56,2.65-4.39,2.35L45.09,75.17a1.91,1.91,0,0,0-2,1.53,1.84,1.84,0,0,0,1.53,2L60.41,81c3.57.51,7.35-1.33,8.37-5a7.3,7.3,0,0,0-.72-5.1L86.33,60.38a3.24,3.24,0,0,1,4.6,1.23c1.12,1.83.1,3.67-1.43,4.79L61.43,86.8c-1.64,1.43-2.66,1.94-6.33,1.43-4.39-.51-15.72-2.35-19.5-1.33A1.69,1.69,0,0,0,34.38,89a1.84,1.84,0,0,0,2.14,1.33c2.76-.82,14.6,1,18.07,1.43s6.12.3,9.08-2.15l28-20.39c3.27-2.45,4.29-6.33,2.45-9.39ZM79.19,46.61V60.38l-6.64,3.78v-6h4.19V54.57H72.55v-8ZM38.25,61V37.13H34.68V61.3a18.88,18.88,0,0,0-4.49,1.84V28l12.56-3.78V61.81a32.25,32.25,0,0,0-4.5-.82Zm8.07,1.84V8.57H69V66.2l-3.47,2a5.05,5.05,0,0,0-1.74-.72ZM60.2,56.61h3.57V50.9H60.2Zm-8.68,0H55.1V50.9H51.52ZM60.2,44.68h3.57V39.07H60.2Zm-8.68,0H55.1V39.07H51.52ZM60.2,32.74h3.57V27.13H60.2Zm-8.68,0H55.1V27.13H51.52ZM60.2,20.91h3.57V15.2H60.2Z"/></svg>
