<svg xmlns="http://www.w3.org/2000/svg" version="1.1" xmlns:xlink="http://www.w3.org/1999/xlink" width="512" height="512" x="0" y="0" viewBox="0 0 512 512" style="enable-background:new 0 0 512 512" xml:space="preserve" class=""><g><path d="M484.569 469.941v-39.65a7.515 7.515 0 1 0-15.03 0v38.718h-9.654V364.087c3.205.444 6.449.444 9.654 0v36.149a7.515 7.515 0 1 0 15.03 0v-41.998c9.165-6.327 15.187-16.897 15.187-28.851 0-19.321-15.72-35.04-35.043-35.04s-35.043 15.719-35.043 35.04c0 11.954 6.021 22.524 15.187 28.851v13.99c-1.805 3.764-7.874 15.349-19.119 26.743-17.878 18.116-39.876 27.302-65.381 27.302s-47.503-9.186-65.381-27.302c-11.253-11.403-17.323-22.996-19.119-26.743v-13.99c9.165-6.327 15.187-16.897 15.187-28.851 0-19.321-15.72-35.04-35.043-35.04s-35.043 15.719-35.043 35.04c0 11.954 6.022 22.524 15.187 28.851v13.99c-1.805 3.764-7.874 15.349-19.119 26.743-17.878 18.116-39.876 27.302-65.381 27.302s-47.503-9.186-65.381-27.302c-11.253-11.403-17.323-22.996-19.119-26.743v-13.99c9.165-6.327 15.187-16.897 15.187-28.851 0-19.321-15.72-35.04-35.043-35.04s-35.043 15.719-35.043 35.04c0 11.954 6.021 22.523 15.186 28.85v111.704C11.734 473.598 0 487.693 0 504.485A7.514 7.514 0 0 0 7.515 512H87.06a7.514 7.514 0 0 0 7.515-7.515c0-16.793-11.734-30.888-27.431-34.544v-69.915a120 120 0 0 0 7.979 9.049c20.581 21.083 47.042 32.227 76.521 32.227 29.48 0 55.94-11.144 76.522-32.227a120 120 0 0 0 7.978-9.049v69.915c-15.698 3.656-27.432 17.751-27.432 34.544a7.515 7.515 0 0 0 7.515 7.515h79.546a7.514 7.514 0 0 0 7.515-7.515c0-16.793-11.734-30.888-27.431-34.544v-69.915a120 120 0 0 0 7.978 9.049c20.581 21.083 47.042 32.227 76.522 32.227 29.479 0 55.94-11.144 76.521-32.227a120 120 0 0 0 7.979-9.049v69.915c-15.697 3.656-27.431 17.751-27.431 34.544a7.515 7.515 0 0 0 7.515 7.515h79.545a7.514 7.514 0 0 0 7.515-7.515c-.001-16.793-11.735-30.888-27.432-34.544m-19.857-160.564c11.035 0 20.014 8.977 20.014 20.01s-8.978 20.011-20.014 20.011-20.014-8.977-20.014-20.011c.001-11.033 8.979-20.01 20.014-20.01m-417.424 0c11.035 0 20.014 8.977 20.014 20.01s-8.979 20.011-20.014 20.011-20.014-8.977-20.014-20.011 8.978-20.01 20.014-20.01m0 55.051a35 35 0 0 0 4.827-.34V469.01H42.46V364.087c1.579.219 3.189.341 4.828.341m30.827 132.543H16.46c3.001-7.566 10.395-12.931 19.019-12.931h23.617c8.623-.001 16.018 5.364 19.019 12.931M256 309.377c11.035 0 20.014 8.977 20.014 20.01s-8.979 20.011-20.014 20.011-20.014-8.977-20.014-20.011 8.979-20.01 20.014-20.01m0 55.051a35 35 0 0 0 4.827-.34V469.01h-9.654V364.087c1.579.219 3.189.341 4.827.341m30.828 132.543h-61.656c3.002-7.566 10.396-12.931 19.02-12.931h23.616c8.623-.001 16.018 5.364 19.02 12.931m147.057 0c3.001-7.566 10.395-12.931 19.019-12.931h23.617c8.623 0 16.018 5.365 19.019 12.931zM511.968 6.878C511.644 3.06 508.322 0 504.485 0H7.515C3.424 0 0 3.432 0 7.515v257.03c0 4.083 3.424 7.515 7.515 7.515h496.971c4.091 0 7.515-3.432 7.515-7.515V7.515a8 8 0 0 0-.033-.637m-31.647 222.879V42.303l16.65-16.648v220.75zm-145.859-4.402-39.148-36.785 59.73-56.124c7.149-6.719 18.349-6.719 25.5 0l84.748 79.631v13.277zM486.341 15.029l-16.648 16.646h-78.89a7.515 7.515 0 1 0 0 15.03h74.488v144.75l-74.456-69.961c-12.92-12.141-33.161-12.142-46.083-.001l-60.412 56.765-75.959-71.373c-12.92-12.14-33.162-12.14-46.084 0l-56.815 53.385a7.514 7.514 0 1 0 10.291 10.953l56.815-53.385c7.151-6.718 18.35-6.718 25.501 0l114.424 107.517H58.165l35.7-33.546a7.515 7.515 0 0 0-10.291-10.953l-36.866 34.64V46.705h314.036a7.515 7.515 0 1 0 0-15.03H42.306L25.659 15.029zM15.029 25.655l16.65 16.648v187.455l-16.65 16.648zm10.63 231.375 16.648-16.646h427.387l16.648 16.646z" fill="#193175" opacity="1" data-original="#000000"></path><path d="M284.576 63.222c-17.915 0-32.49 14.574-32.49 32.487s14.575 32.487 32.49 32.487 32.489-14.573 32.489-32.487-14.574-32.487-32.489-32.487m0 49.944c-9.628 0-17.461-7.831-17.461-17.457s7.833-17.458 17.461-17.458 17.46 7.832 17.46 17.458-7.833 17.457-17.46 17.457" fill="#193175" opacity="1" data-original="#000000"></path></g></svg>