<svg xmlns="http://www.w3.org/2000/svg" version="1.1" xmlns:xlink="http://www.w3.org/1999/xlink" width="512" height="512" x="0" y="0" viewBox="0 0 682.667 682.667" style="enable-background:new 0 0 512 512" xml:space="preserve" class=""><g><defs><clipPath id="a" clipPathUnits="userSpaceOnUse"><path d="M0 512h512V0H0Z" fill="#193175" opacity="1" data-original="#000000"></path></clipPath></defs><g clip-path="url(#a)" transform="matrix(1.33333 0 0 -1.33333 0 682.667)"><path d="M0 0h31.02c16.57 0 30-13.43 30-30v-378.5H-238.5V-30c0 16.57 13.43 30 30 30h31.5" style="stroke-width:15;stroke-linecap:round;stroke-linejoin:round;stroke-miterlimit:10;stroke-dasharray:none;stroke-opacity:1" transform="translate(344.5 416)" fill="none" stroke="#193175" stroke-width="15" stroke-linecap="round" stroke-linejoin="round" stroke-miterlimit="10" stroke-dasharray="none" stroke-opacity="" data-original="#000000" opacity="1" class=""></path><path d="M0 0c-48.799 0-88.5 39.701-88.5 88.5S-48.799 177 0 177s88.5-39.701 88.5-88.5S48.799 0 0 0" style="stroke-width:15;stroke-linecap:round;stroke-linejoin:round;stroke-miterlimit:10;stroke-dasharray:none;stroke-opacity:1" transform="translate(256 327.5)" fill="none" stroke="#193175" stroke-width="15" stroke-linecap="round" stroke-linejoin="round" stroke-miterlimit="10" stroke-dasharray="none" stroke-opacity="" data-original="#000000" opacity="1" class=""></path><path d="M0 0h-34.5a3 3 0 0 0-3 3v34.5a6 6 0 0 1-6 6h-18a6 6 0 0 1-6-6V3a3 3 0 0 0-3-3H-105a6 6 0 0 1-6-6v-18a6 6 0 0 1 6-6h34.5a3 3 0 0 0 3-3v-34.5a6 6 0 0 1 6-6h18a6 6 0 0 1 6 6V-33a3 3 0 0 0 3 3H0a6 6 0 0 1 6 6v18a6 6 0 0 1-6 6" style="stroke-width:15;stroke-linecap:round;stroke-linejoin:round;stroke-miterlimit:10;stroke-dasharray:none;stroke-opacity:1" transform="translate(308.5 431)" fill="none" stroke="#193175" stroke-width="15" stroke-linecap="round" stroke-linejoin="round" stroke-miterlimit="10" stroke-dasharray="none" stroke-opacity="" data-original="#000000" opacity="1" class=""></path><path d="M0 0v-147.074" style="stroke-width:15;stroke-linecap:round;stroke-linejoin:round;stroke-miterlimit:10;stroke-dasharray:none;stroke-opacity:1" transform="translate(330.524 154.574)" fill="none" stroke="#193175" stroke-width="15" stroke-linecap="round" stroke-linejoin="round" stroke-miterlimit="10" stroke-dasharray="none" stroke-opacity="" data-original="#000000" opacity="1" class=""></path><path d="M0 0v60.609" style="stroke-width:15;stroke-linecap:round;stroke-linejoin:round;stroke-miterlimit:10;stroke-dasharray:none;stroke-opacity:1" transform="translate(181.476 93.965)" fill="none" stroke="#193175" stroke-width="15" stroke-linecap="round" stroke-linejoin="round" stroke-miterlimit="10" stroke-dasharray="none" stroke-opacity="" data-original="#000000" opacity="1" class=""></path><path d="M0 0v51.465" style="stroke-width:15;stroke-linecap:round;stroke-linejoin:round;stroke-miterlimit:10;stroke-dasharray:none;stroke-opacity:1" transform="translate(181.476 7.5)" fill="none" stroke="#193175" stroke-width="15" stroke-linecap="round" stroke-linejoin="round" stroke-miterlimit="10" stroke-dasharray="none" stroke-opacity="" data-original="#000000" opacity="1" class=""></path><path d="M0 0h-167.049a6 6 0 0 1-6-6v-18a6 6 0 0 1 6-6H0a6 6 0 0 1 6 6v18a6 6 0 0 1-6 6" style="stroke-width:15;stroke-linecap:round;stroke-linejoin:round;stroke-miterlimit:10;stroke-dasharray:none;stroke-opacity:1" transform="translate(339.524 184.574)" fill="none" stroke="#193175" stroke-width="15" stroke-linecap="round" stroke-linejoin="round" stroke-miterlimit="10" stroke-dasharray="none" stroke-opacity="" data-original="#000000" opacity="1" class=""></path><path d="M0 0v-147.074" style="stroke-width:15;stroke-linecap:round;stroke-linejoin:round;stroke-miterlimit:10;stroke-dasharray:none;stroke-opacity:1" transform="translate(256 154.574)" fill="none" stroke="#193175" stroke-width="15" stroke-linecap="round" stroke-linejoin="round" stroke-miterlimit="10" stroke-dasharray="none" stroke-opacity="" data-original="#000000" opacity="1" class=""></path><path d="M0 0v-15.351" style="stroke-width:15;stroke-linecap:round;stroke-linejoin:round;stroke-miterlimit:10;stroke-dasharray:none;stroke-opacity:1" transform="translate(286 88.712)" fill="none" stroke="#193175" stroke-width="15" stroke-linecap="round" stroke-linejoin="round" stroke-miterlimit="10" stroke-dasharray="none" stroke-opacity="" data-original="#000000" opacity="1" class=""></path><path d="M0 0v-15.351" style="stroke-width:15;stroke-linecap:round;stroke-linejoin:round;stroke-miterlimit:10;stroke-dasharray:none;stroke-opacity:1" transform="translate(226 88.712)" fill="none" stroke="#193175" stroke-width="15" stroke-linecap="round" stroke-linejoin="round" stroke-miterlimit="10" stroke-dasharray="none" stroke-opacity="" data-original="#000000" opacity="1" class=""></path><path d="M0 0h-66.464a8 8 0 0 0-7.999 8.037l.167 36.929a8 8 0 0 0 8 7.964H0a8 8 0 0 0 8-8V8a8 8 0 0 0-8-8" style="stroke-width:15;stroke-linecap:round;stroke-linejoin:round;stroke-miterlimit:10;stroke-dasharray:none;stroke-opacity:1" transform="translate(225.5 229.57)" fill="none" stroke="#193175" stroke-width="15" stroke-linecap="round" stroke-linejoin="round" stroke-miterlimit="10" stroke-dasharray="none" stroke-opacity="" data-original="#000000" opacity="1" class=""></path><path d="M0 0h66.224a8 8 0 0 0 8-8.036l-.168-36.93a8 8 0 0 0-8-7.964H0a8 8 0 0 0-8 8V-8a8 8 0 0 0 8 8" style="stroke-width:15;stroke-linecap:round;stroke-linejoin:round;stroke-miterlimit:10;stroke-dasharray:none;stroke-opacity:1" transform="translate(286.5 282.5)" fill="none" stroke="#193175" stroke-width="15" stroke-linecap="round" stroke-linejoin="round" stroke-miterlimit="10" stroke-dasharray="none" stroke-opacity="" data-original="#000000" opacity="1" class=""></path><path d="M0 0h33.976c16.568 0 30-13.432 30-30v-300.356a8 8 0 0 0-8-8H-35" style="stroke-width:15;stroke-linecap:round;stroke-linejoin:round;stroke-miterlimit:10;stroke-dasharray:none;stroke-opacity:1" transform="translate(440.524 345.856)" fill="none" stroke="#193175" stroke-width="15" stroke-linecap="round" stroke-linejoin="round" stroke-miterlimit="10" stroke-dasharray="none" stroke-opacity="" data-original="#000000" opacity="1" class=""></path><path d="M0 0h45.976a8 8 0 0 0 8-8.036l-.168-36.93a8 8 0 0 0-8-7.964H0" style="stroke-width:15;stroke-linecap:round;stroke-linejoin:round;stroke-miterlimit:10;stroke-dasharray:none;stroke-opacity:1" transform="translate(405.524 300.856)" fill="none" stroke="#193175" stroke-width="15" stroke-linecap="round" stroke-linejoin="round" stroke-miterlimit="10" stroke-dasharray="none" stroke-opacity="" data-original="#000000" opacity="1" class=""></path><path d="M0 0h45.976a8 8 0 0 0 8-8.036l-.168-36.93a8 8 0 0 0-8-7.964H0" style="stroke-width:15;stroke-linecap:round;stroke-linejoin:round;stroke-miterlimit:10;stroke-dasharray:none;stroke-opacity:1" transform="translate(405.524 202.926)" fill="none" stroke="#193175" stroke-width="15" stroke-linecap="round" stroke-linejoin="round" stroke-miterlimit="10" stroke-dasharray="none" stroke-opacity="" data-original="#000000" opacity="1" class=""></path><path d="M0 0h45.976a8 8 0 0 0 8-8.037l-.168-36.929a8 8 0 0 0-8-7.964H0" style="stroke-width:15;stroke-linecap:round;stroke-linejoin:round;stroke-miterlimit:10;stroke-dasharray:none;stroke-opacity:1" transform="translate(405.524 105.43)" fill="none" stroke="#193175" stroke-width="15" stroke-linecap="round" stroke-linejoin="round" stroke-miterlimit="10" stroke-dasharray="none" stroke-opacity="" data-original="#000000" opacity="1" class=""></path><path d="M0 0h-68.976c-16.568 0-30-13.432-30-30v-300.356a8 8 0 0 1 8-8H0" style="stroke-width:15;stroke-linecap:round;stroke-linejoin:round;stroke-miterlimit:10;stroke-dasharray:none;stroke-opacity:1" transform="translate(106.476 345.856)" fill="none" stroke="#193175" stroke-width="15" stroke-linecap="round" stroke-linejoin="round" stroke-miterlimit="10" stroke-dasharray="none" stroke-opacity="" data-original="#000000" opacity="1" class=""></path><path d="M0 0h-45.33c-4.41 0-7.98 3.56-8 7.96l-.17 36.93c-.02 4.43 3.57 8.04 8 8.04H0" style="stroke-width:15;stroke-linecap:round;stroke-linejoin:round;stroke-miterlimit:10;stroke-dasharray:none;stroke-opacity:1" transform="translate(106 247.93)" fill="none" stroke="#193175" stroke-width="15" stroke-linecap="round" stroke-linejoin="round" stroke-miterlimit="10" stroke-dasharray="none" stroke-opacity="" data-original="#000000" opacity="1" class=""></path><path d="M0 0h-45.33c-4.41 0-7.98 3.56-8 7.96l-.17 36.93c-.02 4.43 3.57 8.04 8 8.04H0" style="stroke-width:15;stroke-linecap:round;stroke-linejoin:round;stroke-miterlimit:10;stroke-dasharray:none;stroke-opacity:1" transform="translate(106 150)" fill="none" stroke="#193175" stroke-width="15" stroke-linecap="round" stroke-linejoin="round" stroke-miterlimit="10" stroke-dasharray="none" stroke-opacity="" data-original="#000000" opacity="1" class=""></path><path d="M0 0h-45.33c-4.41 0-7.98 3.56-8 7.96l-.17 36.93a8 8 0 0 0 8 8.04H0" style="stroke-width:15;stroke-linecap:round;stroke-linejoin:round;stroke-miterlimit:10;stroke-dasharray:none;stroke-opacity:1" transform="translate(106 52.5)" fill="none" stroke="#193175" stroke-width="15" stroke-linecap="round" stroke-linejoin="round" stroke-miterlimit="10" stroke-dasharray="none" stroke-opacity="" data-original="#000000" opacity="1" class=""></path></g></g></svg>