<svg id="Layer_1" enable-background="new 0 0 500 500" viewBox="0 0 500 500" xmlns="http://www.w3.org/2000/svg"><g><path d="m324.993 475h-214.808c-16.784 0-30.443-13.657-30.443-30.445v-389.112c0-16.785 13.658-30.443 30.443-30.443h214.809c16.788 0 30.446 13.658 30.446 30.443v39.123c0 4.215-3.416 7.631-7.631 7.631s-7.631-3.416-7.631-7.631v-39.123c0-8.37-6.811-15.181-15.185-15.181h-214.808c-8.37 0-15.181 6.811-15.181 15.181v389.112c0 8.372 6.811 15.183 15.181 15.183h214.809c8.373 0 15.185-6.811 15.185-15.183v-63.149c0-4.215 3.416-7.631 7.631-7.631s7.631 3.416 7.631 7.631v63.149c-.002 16.788-13.66 30.445-30.448 30.445z"/><path d="m217.589 449.851c-15.831 0-28.708-12.879-28.708-28.711 0-15.831 12.877-28.708 28.708-28.708s28.711 12.877 28.711 28.708c0 15.832-12.879 28.711-28.711 28.711zm0-42.157c-7.413 0-13.447 6.033-13.447 13.447 0 7.416 6.033 13.449 13.447 13.449 7.416 0 13.449-6.033 13.449-13.449 0-7.414-6.033-13.447-13.449-13.447z"/><path d="m258.34 70.898h-81.501c-4.215 0-7.631-3.416-7.631-7.631 0-4.214 3.416-7.631 7.631-7.631h81.501c4.215 0 7.631 3.417 7.631 7.631-.001 4.215-3.416 7.631-7.631 7.631z"/><path d="m424.576 475h-356.841c-4.215 0-7.631-3.416-7.631-7.631 0-4.214 3.416-7.631 7.631-7.631h356.841c4.215 0 7.631 3.417 7.631 7.631 0 4.215-3.416 7.631-7.631 7.631z"/><path d="m364.587 359.936c-7.562 0-15.125-2.397-21.724-7.19l-27.444-19.942c-7.629-5.541-17.883-5.535-25.51 0l-27.445 19.942c-13.199 9.586-30.252 9.586-43.446 0-13.199-9.586-18.469-25.808-13.431-41.323l2.289-7.043c1.302-4.012 5.619-6.188 9.616-4.901 4.01 1.303 6.203 5.61 4.901 9.617l-2.289 7.043c-3.592 11.056 1.72 19.781 7.885 24.261 6.17 4.483 16.108 6.832 25.503 0l27.447-19.942c12.994-9.437 30.455-9.437 43.449 0l27.447 19.942c9.401 6.832 19.342 4.483 25.507 0 6.165-4.48 11.473-13.205 7.881-24.261l-10.483-32.261c-4.963-15.276.431-31.883 13.425-41.323l27.447-19.942c9.405-6.831 10.239-17.008 7.884-24.258-2.357-7.249-9.014-14.993-20.639-14.993h-33.924c-16.061 0-30.187-10.263-35.15-25.537l-10.483-32.264c-3.165-9.741-10.535-13.076-14.648-14.197-7.225-1.964-15.044-.232-20.424 4.522-3.16 2.791-7.98 2.495-10.77-.659-2.793-3.153-2.498-7.976.659-10.769 9.181-8.126 22.428-11.125 34.548-7.815 12.054 3.284 21.22 12.105 25.152 24.203l10.483 32.264c2.913 8.967 11.205 14.991 20.634 14.991h33.924c16.314 0 30.112 10.024 35.152 25.539 5.042 15.515-.229 31.733-13.425 41.319l-27.447 19.942c-7.629 5.542-10.796 15.292-7.881 24.261l10.483 32.261c5.04 15.515-.232 31.733-13.429 41.323-6.599 4.793-14.161 7.19-21.724 7.19z"/><path d="m198.975 289.595c-50.624 0-91.809-41.184-91.809-91.806 0-50.624 41.186-91.809 91.809-91.809 5.889 0 11.777.561 17.505 1.667 4.138.802 6.844 4.805 6.046 8.943-.799 4.137-4.799 6.859-8.943 6.041-4.775-.921-9.69-1.388-14.608-1.388-42.208 0-76.548 34.339-76.548 76.547 0 42.205 34.34 76.544 76.548 76.544 42.205 0 76.543-34.34 76.543-76.544 0-14.147-3.887-27.963-11.237-39.955-2.203-3.591-1.077-8.29 2.516-10.492 3.591-2.2 8.29-1.079 10.492 2.516 8.827 14.394 13.491 30.967 13.491 47.931-.001 50.621-41.183 91.805-91.805 91.805z"/><path d="m198.975 234.631c-2.236 0-4.4-.984-5.876-2.76l-38.243-46.122c-2.689-3.244-2.238-8.054 1.004-10.747 3.24-2.688 8.049-2.25 10.746 1.005l27.816 33.548c6.048-26.961 22.678-78.746 63.054-93.842 3.947-1.481 8.343.528 9.821 4.474 1.475 3.95-.528 8.346-4.474 9.822-45.655 17.068-56.176 97.129-56.278 97.938-.378 3.02-2.512 5.526-5.434 6.379-.707.207-1.424.305-2.136.305z"/></g></svg>