<svg id="Layer_1" enable-background="new 0 0 500 500" viewBox="0 0 500 500" xmlns="http://www.w3.org/2000/svg"><path clip-rule="evenodd" d="m255.766 169.989c0 3.178-2.591 5.763-5.769 5.763-3.177 0-5.763-2.586-5.763-5.763 0-3.183 2.586-5.769 5.763-5.769 3.178.001 5.769 2.586 5.769 5.769zm55.351 71.658c0-2.841-.196-5.676-.581-8.479h31.109v17.349l-18.805 6.116c-2.048.663-3.628 2.303-4.21 4.378-1.51 5.372-3.672 10.57-6.42 15.459-1.048 1.879-1.097 4.155-.12 6.084l8.984 17.627-12.542 12.542-17.627-8.984c-1.928-.978-4.205-.929-6.084.12-4.888 2.748-10.098 4.905-15.454 6.42-2.075.581-3.726 2.162-4.383 4.21l-6.116 18.805h-17.735l-6.116-18.805c-.663-2.048-2.314-3.629-4.384-4.21-5.367-1.516-10.576-3.672-15.454-6.42-1.879-1.054-4.155-1.097-6.084-.12l-17.627 8.984-12.548-12.542 8.984-17.627c.972-1.928.934-4.204-.125-6.084-2.743-4.889-4.899-10.098-6.41-15.459-.587-2.075-2.167-3.715-4.21-4.378l-18.805-6.116v-17.349h31.108c-.386 2.803-.587 5.638-.587 8.479 0 34.213 27.903 61.12 61.12 61.12 33.218 0 61.122-26.902 61.122-61.12zm7.366-65.313c3.178 0 5.763 2.591 5.763 5.769 0 3.177-2.586 5.763-5.763 5.763-3.178 0-5.769-2.586-5.769-5.763 0-3.178 2.591-5.769 5.769-5.769zm-142.729 5.769c0-3.178 2.585-5.769 5.763-5.769s5.763 2.591 5.763 5.769c0 3.177-2.586 5.763-5.763 5.763-3.178 0-5.763-2.586-5.763-5.763zm55.595-12.114c0 8.023 5.084 14.878 12.206 17.507v101.935c-2.868-.386-5.655-1.01-8.343-1.879v-76.514c0-2.243-1.168-4.324-3.075-5.497l-32.331-19.799c2.288-11.493-6.523-22.293-18.289-22.293-10.293 0-18.653 8.365-18.653 18.653 0 15.526 17.975 24.267 30.201 14.628l29.262 17.914v66.476c-16.538-11.635-24.425-32.573-18.74-52.641 1.162-4.101-1.942-8.197-6.203-8.197h-41.255c-.679 0-1.347.103-1.994.315-5.187 1.684-8.669 6.48-8.669 11.934v18.23c0 5.459 3.482 10.25 8.669 11.934l15.85 5.149c1.325 4.063 2.971 8.023 4.916 11.847l-7.577 14.856c-2.472 4.862-1.548 10.712 2.309 14.568l12.89 12.895c3.857 3.851 9.718 4.786 14.579 2.303l14.856-7.567c3.813 1.939 7.784 3.58 11.836 4.91l5.155 15.856c1.684 5.187 6.48 8.664 11.934 8.664h18.23c5.459 0 10.255-3.477 11.934-8.664l5.149-15.856c4.063-1.331 8.023-2.971 11.847-4.91l14.856 7.567c4.862 2.482 10.723 1.548 14.569-2.303l12.895-12.895c3.857-3.846 4.78-9.707 2.303-14.568l-7.567-14.856c1.939-3.813 3.58-7.784 4.91-11.842l15.856-5.155c5.187-1.684 8.664-6.475 8.664-11.934v-18.23c0-5.454-3.476-10.25-8.664-11.934-.646-.212-1.315-.315-1.994-.315h-41.255c-4.279 0-7.368 4.088-6.209 8.197 5.673 20.099-2.174 40.98-18.735 52.641v-66.476l29.262-17.914c12.201 9.635 30.201.906 30.201-14.628 0-10.288-8.37-18.653-18.653-18.653-11.741 0-20.584 10.764-18.289 22.293l-32.331 19.799c-1.912 1.173-3.074 3.254-3.074 5.497v76.514c-2.694.869-5.475 1.494-8.344 1.879v-101.933c7.111-2.629 12.206-9.484 12.206-17.507 0-10.288-8.365-18.653-18.653-18.653-10.282-.001-18.648 8.364-18.648 18.652zm139.248-25.09-120.6-63.309-120.599 63.309v129.019c0 37.1 16.04 67.97 46.394 89.296l74.205 52.119 74.206-52.119c30.348-21.326 46.394-52.195 46.394-89.296zm-123.598-76.291-127.042 66.693c-2.113 1.108-3.444 3.308-3.444 5.703v132.914c0 41.221 18.148 76.142 51.875 99.833l77.91 54.727c2.214 1.559 5.193 1.557 7.404 0l77.91-54.727c33.708-23.679 51.875-58.637 51.875-99.833v-132.913c0-2.395-1.331-4.595-3.455-5.703l-127.042-66.694c-1.874-.978-4.106-.978-5.991 0zm150.567 205.354v-145.413l-147.569-77.47-147.569 77.47v145.413c0 45.595 20.554 85.134 57.861 111.343l89.708 63.01 89.714-63.01c37.306-26.209 57.855-65.748 57.855-111.343zm9.436-155.017-154.012-80.848c-1.874-.983-4.107-.983-5.991 0l-154.001 80.848c-2.124 1.119-3.455 3.314-3.455 5.704v149.313c0 49.919 22.494 93.201 63.336 121.887l93.418 65.623c2.214 1.559 5.192 1.557 7.404 0l93.418-65.623c40.843-28.686 63.336-71.967 63.336-121.887v-149.313c.001-2.39-1.335-4.584-3.453-5.704z" fill-rule="evenodd"/></svg>