<svg enable-background="new 0 0 32 32" viewBox="0 0 32 32" xmlns="http://www.w3.org/2000/svg"><g id="Guides"/><g id="_x32_0"/><g id="_x31_9"/><g id="_x31_8"/><g id="_x31_7"/><g id="_x31_6"/><g id="_x31_5"/><g id="_x31_4"/><g id="_x31_3"/><g id="_x31_2"/><g id="_x31_1"/><g id="_x31_0"/><g id="_x30_9"/><g id="_x30_8"/><g id="_x30_7"/><g id="_x30_6"/><g id="_x30_5"/><g id="_x30_4"/><g id="_x30_3"/><g id="_x30_2"><path d="m12.7070313 24.2929688c-.390625-.390625-1.0234375-.390625-1.4140625 0s-.390625 1.0234375 0 1.4140625l.2929687.2929687h-3.0859375v-2h-2v3c0 .5522461.4477539 1 1 1h4.0859375l-.2929688.2929688c-.390625.390625-.390625 1.0234375 0 1.4140625.1953126.1953125.4511719.2929687.7070313.2929687s.5117188-.0976563.7070313-.2929688l2-2c.390625-.390625.390625-1.0234375 0-1.4140625z"/><path d="m7.5 7c-.5522461 0-1 .4477539-1 1v3h2v-2h6.5v-2z"/><path d="m13 15-5 2v6l4.3713903-1.7485561c.3796587-.1518631.6286097-.5195713.6286097-.9284764z"/><path d="m2 15 5 2v6l-4.3713903-1.7485561c-.3796587-.1518631-.6286097-.5195713-.6286097-.9284764z"/><path d="m2.5 14 5 2 5-2-4.6286092-1.9270725c-.2384109-.0972366-.5043707-.0972366-.7427816 0z"/><path d="m27 10h-3c0 .5523071-.4476929 1-1 1s-1-.4476929-1-1h-3l-3-2v5c0 1.1045532.8954468 2 2 2h10c1.1045532 0 2-.8954468 2-2v-5z"/><path d="m28 5h-1c0-1.6542969-1.3457031-3-3-3h-2c-1.6542969 0-3 1.3457031-3 3h-1c-1.1045532 0-2 .8954468-2 2l3 2h3c0-.5523071.4476929-1 1-1s1 .4476929 1 1h3l3-2c0-1.1045532-.8954468-2-2-2zm-7 0c0-.5512695.4487305-1 1-1h2c.5512695 0 1 .4487305 1 1z"/><path d="m27 25h-3c0 .5523071-.4476929 1-1 1s-1-.4476929-1-1h-3l-3-2v5c0 1.1045532.8954468 2 2 2h10c1.1045532 0 2-.8954468 2-2v-5z"/><path d="m28 20h-1c0-1.6542969-1.3457031-3-3-3h-2c-1.6542969 0-3 1.3457031-3 3h-1c-1.1045532 0-2 .8954468-2 2l3 2h3c0-.5523071.4476929-1 1-1s1 .4476929 1 1h3l3-2c0-1.1045532-.8954468-2-2-2zm-7 0c0-.5512695.4487305-1 1-1h2c.5512695 0 1 .4487305 1 1z"/></g><g id="_x30_1"/></svg>