<svg id="Layer_1" enable-background="new 0 0 50 50" height="512" viewBox="0 0 50 50" width="512" xmlns="http://www.w3.org/2000/svg"><g><g><path d="m25 17.2c-4.4 0-7.9-3.6-7.9-8s3.5-8 7.9-8 7.9 3.6 7.9 8-3.5 8-7.9 8zm0-14.9c-3.8 0-6.9 3.1-6.9 7s3.1 7 6.9 7 6.9-3.1 6.9-7-3.1-7-6.9-7z"/></g><g><path d="m25 9.8c-1.4 0-2.6-1.2-2.6-2.6s1.2-2.6 2.6-2.6 2.6 1.2 2.6 2.6-1.2 2.6-2.6 2.6zm0-4.2c-.9 0-1.6.7-1.6 1.6s.7 1.6 1.6 1.6 1.6-.7 1.6-1.6-.7-1.6-1.6-1.6z"/></g><g><path d="m26.1 13.9h-2.3c-1.1 0-2.2-.8-2.4-1.9-.1-.4-.1-.7-.1-1 0-1.4.7-2.3 2.1-2.7l.3-.1.2.2c.6.6 1.7.6 2.3 0l.2-.2.3.1c1.3.4 2.1 1.4 2.1 2.7 0 .3 0 .7-.1 1-.4 1.1-1.4 1.9-2.6 1.9zm-2.7-4.6c-.7.3-1.1.8-1.1 1.7 0 .2 0 .5.1.8.2.6.8 1.1 1.5 1.1h2.3c.7 0 1.3-.5 1.5-1.1.1-.3.1-.5.1-.8 0-.8-.4-1.4-1.1-1.7-1 .7-2.4.7-3.3 0z"/></g><g><path d="m38.2 25.9c-3.9 0-7-3.1-7-6.9s3.1-6.9 7-6.9 7 3.1 7 6.9-3.1 6.9-7 6.9zm0-12.9c-3.3 0-6 2.7-6 5.9s2.7 5.9 6 5.9 6-2.7 6-5.9-2.7-5.9-6-5.9z"/></g><g><path d="m38.2 19.5c-1.3 0-2.3-1-2.3-2.3s1-2.3 2.3-2.3 2.3 1 2.3 2.3-1 2.3-2.3 2.3zm0-3.6c-.7 0-1.3.6-1.3 1.3s.6 1.3 1.3 1.3 1.3-.6 1.3-1.3-.6-1.3-1.3-1.3z"/></g><g><path d="m39.2 23h-2c-1.1 0-2-.7-2.2-1.7-.1-.3-.1-.6-.1-.9 0-1.2.7-2 1.9-2.4l.3-.1.2.2c.5.5 1.4.5 1.9 0l.2-.2.3.1c1.2.4 1.9 1.2 1.9 2.4 0 .3 0 .5-.1.9-.3 1-1.2 1.7-2.3 1.7zm-2.4-3.9c-.6.3-.9.7-.9 1.4 0 .2 0 .4.1.7.1.5.6.9 1.2.9h2c.6 0 1.1-.4 1.2-.9.1-.3.1-.5.1-.7 0-.7-.3-1.1-.9-1.4-.8.6-2 .6-2.8 0z"/></g><g><path d="m38.7 12.5h-1v-1.5c0-.7-.6-1.3-1.3-1.3h-4v-1h4c1.3 0 2.3 1 2.3 2.3z"/></g><g><path d="m11.8 25.9c-3.9 0-7-3.1-7-6.9s3.1-6.9 7-6.9 7 3.1 7 6.9-3.1 6.9-7 6.9zm0-12.9c-3.3 0-6 2.7-6 5.9s2.7 5.9 6 5.9 6-2.7 6-5.9-2.7-5.9-6-5.9z"/></g><g><path d="m11.8 19.5c-1.3 0-2.3-1-2.3-2.3s1-2.3 2.3-2.3 2.3 1 2.3 2.3-1 2.3-2.3 2.3zm0-3.6c-.7 0-1.3.6-1.3 1.3s.6 1.3 1.3 1.3 1.3-.6 1.3-1.3-.6-1.3-1.3-1.3z"/></g><g><path d="m12.8 23h-2c-1.1 0-2-.7-2.2-1.7-.1-.4-.1-.6-.1-.9 0-1.2.7-2 1.9-2.4l.3-.1.2.2c.5.5 1.4.5 1.9 0l.2-.2.3.1c1.2.4 1.9 1.2 1.9 2.4 0 .3 0 .5-.1.9-.3 1-1.2 1.7-2.3 1.7zm-2.4-3.9c-.6.3-.9.7-.9 1.4 0 .2 0 .4.1.7.1.5.6.9 1.2.9h2c.6 0 1.1-.4 1.2-.9.1-.3.1-.5.1-.7 0-.7-.3-1.1-.9-1.4-.8.6-2 .6-2.8 0z"/></g><g><path d="m12.3 12.5h-1v-1.5c0-1.3 1-2.3 2.3-2.3h4v1h-4c-.7 0-1.3.6-1.3 1.3z"/></g><g><path d="m6.4 38.9c-3 0-5.4-2.4-5.4-5.4s2.4-5.4 5.4-5.4 5.4 2.4 5.4 5.4c-.1 3-2.5 5.4-5.4 5.4zm0-9.8c-2.4 0-4.4 1.9-4.4 4.4s2 4.4 4.4 4.4 4.4-2 4.4-4.4-2-4.4-4.4-4.4z"/></g><g><path d="m6.4 34c-.5 0-1-.2-1.3-.6-.7-.7-.7-1.9 0-2.7.7-.7 1.9-.7 2.7 0 .4.4.6.8.6 1.3s-.2 1-.5 1.3c-.6.5-1 .7-1.5.7zm-.7-2.5c-.3.3-.3.9 0 1.2s.9.3 1.2 0c.2-.2.3-.4.3-.6s-.1-.5-.3-.6c-.3-.3-.8-.3-1.2 0z"/></g><g><path d="m7.1 36.7h-1.5c-.8 0-1.6-.6-1.8-1.4-.1-.3-.1-.5-.1-.7 0-1 .5-1.7 1.5-1.9.2-.1.4 0 .5.1.3.3.9.3 1.2 0 .1-.1.3-.2.5-.1 1 .3 1.5 1 1.5 1.9 0 .2 0 .5-.1.7-.1.8-.8 1.4-1.7 1.4zm-1.8-3c-.4.2-.5.5-.5.9 0 .2 0 .3.1.5.1.3.4.6.8.6h1.5c.4 0 .7-.2.8-.6 0-.2.1-.3.1-.5 0-.4-.2-.7-.5-.9-.8.4-1.7.4-2.3 0z"/></g><g><path d="m17.2 38.9h-10.8c-.3 0-.5-.2-.5-.5s.2-.5.5-.5h10.9c2.4 0 4.4-2 4.4-4.4s-2-4.4-4.4-4.4h-10.9c-.3 0-.5-.2-.5-.5s.2-.5.5-.5h10.9c3 0 5.4 2.4 5.4 5.4s-2.5 5.4-5.5 5.4z"/></g><g><path d="m18.4 31.9h-5.1c-.3 0-.5-.2-.5-.5s.2-.5.5-.5h5.1c.3 0 .5.2.5.5s-.3.5-.5.5z"/></g><g><path d="m18.4 34h-5.1c-.3 0-.5-.2-.5-.5s.2-.5.5-.5h5.1c.3 0 .5.2.5.5s-.3.5-.5.5z"/></g><g><path d="m16 36h-2.7c-.3 0-.5-.2-.5-.5s.2-.5.5-.5h2.7c.3 0 .5.2.5.5s-.2.5-.5.5z"/></g><g><path d="m6.4 48.7c-3 0-5.4-2.4-5.4-5.4s2.4-5.4 5.4-5.4 5.4 2.4 5.4 5.4-2.5 5.4-5.4 5.4zm0-9.8c-2.4 0-4.4 2-4.4 4.4s2 4.4 4.4 4.4 4.4-2 4.4-4.4-2-4.4-4.4-4.4z"/></g><g><path d="m6.4 43.9c-.5 0-1-.2-1.3-.6-.7-.7-.7-1.9 0-2.7.7-.7 1.9-.7 2.7 0 .2.4.4.9.4 1.4s-.2 1-.5 1.3c-.4.4-.8.6-1.3.6zm-.7-2.5c-.3.3-.3.9 0 1.2.2.2.4.3.6.3.2 0 .4-.1.6-.3s.3-.4.3-.6-.1-.5-.3-.6c-.3-.4-.8-.4-1.2 0z"/></g><g><path d="m7.1 46.5h-1.5c-.8 0-1.6-.6-1.8-1.4-.1-.3-.1-.5-.1-.7 0-1 .5-1.7 1.5-1.9.2-.1.4 0 .5.1.3.3.9.3 1.2 0 .1-.1.3-.2.5-.1 1 .3 1.5 1 1.5 1.9 0 .2 0 .5-.1.7-.1.8-.8 1.4-1.7 1.4zm-1.8-3c-.4.2-.5.5-.5.9 0 .2 0 .3.1.5.1.3.4.6.8.6h1.5c.4 0 .7-.2.8-.6 0-.2.1-.3.1-.5 0-.4-.2-.7-.5-.9-.8.5-1.7.5-2.3 0z"/></g><g><path d="m17.2 48.7h-10.8c-.3 0-.5-.2-.5-.5s.2-.5.5-.5h10.9c2.4 0 4.4-2 4.4-4.4s-2-4.4-4.4-4.4h-10.9c-.3 0-.5-.2-.5-.5s.2-.5.5-.5h10.9c3 0 5.4 2.4 5.4 5.4s-2.5 5.4-5.5 5.4z"/></g><g><path d="m18.4 41.7h-5.1c-.3 0-.5-.2-.5-.5s.2-.5.5-.5h5.1c.3 0 .5.2.5.5s-.3.5-.5.5z"/></g><g><path d="m18.4 43.8h-5.1c-.3 0-.5-.2-.5-.5s.2-.5.5-.5h5.1c.3 0 .5.2.5.5s-.3.5-.5.5z"/></g><g><path d="m16 45.9h-2.7c-.3 0-.5-.2-.5-.5s.2-.5.5-.5h2.7c.3 0 .5.2.5.5s-.2.5-.5.5z"/></g><g><path d="m32.8 38.9c-3 0-5.4-2.4-5.4-5.4s2.4-5.4 5.4-5.4 5.4 2.4 5.4 5.4c-.1 3-2.5 5.4-5.4 5.4zm0-9.8c-2.4 0-4.4 2-4.4 4.4s2 4.4 4.4 4.4 4.4-2 4.4-4.4-2-4.4-4.4-4.4z"/></g><g><path d="m32.8 34c-.5 0-1-.2-1.3-.6-.7-.7-.7-1.9 0-2.7.4-.4.8-.5 1.3-.5s1 .2 1.3.6c.7.7.7 1.9 0 2.7-.4.3-.8.5-1.3.5zm0-2.7c-.2 0-.4.1-.6.3-.3.3-.3.9 0 1.2s.9.3 1.2 0 .3-.9 0-1.2c-.2-.2-.4-.4-.6-.3z"/></g><g><path d="m33.5 36.7h-1.5c-.8 0-1.6-.6-1.8-1.4-.1-.3-.1-.5-.1-.7 0-1 .5-1.7 1.5-1.9.2-.1.4 0 .5.1.3.3.9.3 1.2 0 .1-.1.3-.2.5-.1 1 .3 1.5 1 1.5 1.9 0 .2 0 .5-.1.7-.1.8-.8 1.4-1.7 1.4zm-1.8-3c-.4.2-.5.5-.5.9 0 .2 0 .3.1.5.1.3.4.6.8.6h1.5c.4 0 .7-.2.8-.6 0-.2.1-.3.1-.5 0-.4-.2-.7-.5-.9-.8.4-1.7.4-2.3 0z"/></g><g><path d="m43.6 38.9h-10.8c-.3 0-.5-.2-.5-.5s.2-.5.5-.5h10.8c2.4 0 4.4-2 4.4-4.4s-2-4.4-4.4-4.4h-10.8c-.3 0-.5-.2-.5-.5s.2-.5.5-.5h10.8c3 0 5.4 2.4 5.4 5.4s-2.4 5.4-5.4 5.4z"/></g><g><path d="m44.8 31.9h-5.1c-.3 0-.5-.2-.5-.5s.2-.5.5-.5h5.1c.3 0 .5.2.5.5s-.3.5-.5.5z"/></g><g><path d="m44.8 34h-5.1c-.3 0-.5-.2-.5-.5s.2-.5.5-.5h5.1c.3 0 .5.2.5.5s-.3.5-.5.5z"/></g><g><path d="m42.4 36h-2.7c-.3 0-.5-.2-.5-.5s.2-.5.5-.5h2.7c.3 0 .5.2.5.5s-.2.5-.5.5z"/></g><g><path d="m32.8 48.7c-3 0-5.4-2.4-5.4-5.4s2.4-5.4 5.4-5.4 5.4 2.4 5.4 5.4-2.5 5.4-5.4 5.4zm0-9.8c-2.4 0-4.4 2-4.4 4.4s2 4.4 4.4 4.4 4.4-2 4.4-4.4-2-4.4-4.4-4.4z"/></g><g><path d="m32.8 43.9c-.5 0-1-.2-1.3-.6-.7-.7-.7-1.9 0-2.7.7-.7 1.9-.7 2.7 0 .7.7.7 1.9 0 2.7-.4.4-.9.6-1.4.6zm-.6-2.5c-.3.3-.3.9 0 1.2.2.2.4.3.6.3s.4-.1.6-.3c.3-.3.3-.9 0-1.2s-.9-.4-1.2 0z"/></g><g><path d="m33.5 46.5h-1.5c-.8 0-1.6-.6-1.8-1.4-.1-.3-.1-.5-.1-.7 0-1 .5-1.7 1.5-1.9.2-.1.4 0 .5.1.3.3.9.3 1.2 0 .1-.1.3-.2.5-.1 1 .3 1.5 1 1.5 1.9 0 .2 0 .5-.1.7-.1.8-.8 1.4-1.7 1.4zm-1.8-3c-.4.2-.5.5-.5.9 0 .2 0 .3.1.5.1.3.4.6.8.6h1.5c.4 0 .7-.2.8-.6 0-.2.1-.3.1-.5 0-.4-.2-.7-.5-.9-.8.5-1.7.5-2.3 0z"/></g><g><path d="m43.6 48.7h-10.8c-.3 0-.5-.2-.5-.5s.2-.5.5-.5h10.8c2.4 0 4.4-2 4.4-4.4s-2-4.4-4.4-4.4h-10.8c-.3 0-.5-.2-.5-.5s.2-.5.5-.5h10.8c3 0 5.4 2.4 5.4 5.4s-2.4 5.4-5.4 5.4z"/></g><g><path d="m44.8 41.7h-5.1c-.3 0-.5-.2-.5-.5s.2-.5.5-.5h5.1c.3 0 .5.2.5.5s-.3.5-.5.5z"/></g><g><path d="m44.8 43.8h-5.1c-.3 0-.5-.2-.5-.5s.2-.5.5-.5h5.1c.3 0 .5.2.5.5s-.3.5-.5.5z"/></g><g><path d="m42.4 45.9h-2.7c-.3 0-.5-.2-.5-.5s.2-.5.5-.5h2.7c.3 0 .5.2.5.5s-.2.5-.5.5z"/></g><g><path d="m38.2 28.8c-.3 0-.5-.2-.5-.5v-3c0-.3.2-.5.5-.5s.5.2.5.5v3c0 .3-.2.5-.5.5z"/></g><g><path d="m11.8 28.8c-.3 0-.5-.2-.5-.5v-3c0-.3.2-.5.5-.5s.5.2.5.5v3c0 .3-.2.5-.5.5z"/></g></g></svg>