<svg id="Layer_1" enable-background="new 0 0 450 450" viewBox="0 0 450 450" xmlns="http://www.w3.org/2000/svg"><g><g><path d="m133.78 299.37c-17.73 0-33.89-10.45-41.17-26.63-.7-1.55-.56-3.34.36-4.77s2.5-2.29 4.2-2.29h22.89v-22.9h-22.89c-1.7 0-3.28-.86-4.2-2.29s-1.06-3.22-.36-4.77c7.28-16.17 23.44-26.63 41.17-26.63 16.63 0 31.88 9.19 39.71 23.68h114.34c7.3-11.46 19.94-18.46 33.66-18.46 15.68 0 29.97 9.24 36.41 23.55.7 1.55.56 3.34-.36 4.77-.92 1.42-2.5 2.29-4.2 2.29h-19.26v18.62h19.26c1.7 0 3.28.86 4.2 2.29.92 1.42 1.06 3.22.36 4.77-6.44 14.31-20.73 23.55-36.41 23.55-13.73 0-26.36-7-33.66-18.46h-114.34c-7.83 14.49-23.08 23.68-39.71 23.68zm-27.82-23.67c6.57 8.49 16.8 13.68 27.82 13.68 13.8 0 26.38-8.14 32.05-20.73.81-1.79 2.59-2.95 4.56-2.95h120.31c1.84 0 3.54 1.01 4.41 2.64 5.22 9.76 15.34 15.82 26.39 15.82 8.92 0 17.24-3.99 22.84-10.6h-15.25c-2.76 0-5-2.24-5-5v-28.62c0-2.76 2.24-5 5-5h15.25c-5.6-6.61-13.92-10.6-22.84-10.6-11.06 0-21.17 6.06-26.39 15.82-.87 1.63-2.56 2.64-4.41 2.64h-120.31c-1.97 0-3.75-1.15-4.56-2.95-5.67-12.59-18.25-20.73-32.05-20.73-11.02 0-21.25 5.18-27.82 13.68h19.1c2.76 0 5 2.24 5 5v32.9c0 2.76-2.24 5-5 5z"/></g><g><path d="m392.82 417.37c-2.76 0-5-2.24-5-5s2.24-5 5-5c9.61 0 17.42-7.81 17.42-17.42s-7.81-17.42-17.42-17.42h-335.12c-9.61 0-17.42 7.81-17.42 17.42s7.81 17.42 17.42 17.42c2.76 0 5 2.24 5 5s-2.24 5-5 5c-15.12 0-27.42-12.3-27.42-27.42s12.3-27.42 27.42-27.42h335.12c15.12 0 27.42 12.3 27.42 27.42s-12.3 27.42-27.42 27.42z"/></g><g><path d="m299.24 392.54h-147.96c-8.17 0-14.7-5.37-17.04-14.02l-2.62-9.69c-.72-2.67.86-5.41 3.52-6.13 2.67-.71 5.41.86 6.13 3.52l2.62 9.69c.67 2.48 2.52 6.63 7.39 6.63h147.96c4.87 0 6.72-4.15 7.39-6.63l2.62-9.69c.72-2.67 3.47-4.25 6.13-3.52 2.67.72 4.24 3.47 3.52 6.13l-2.62 9.69c-2.33 8.65-8.86 14.02-17.04 14.02z"/></g><g><path d="m369.8 372.53c-2.76 0-5-2.24-5-5s2.24-5 5-5c9.45 0 17.14-7.69 17.14-17.13v-182.3c0-9.45-7.69-17.13-17.14-17.13h-289.08c-9.45 0-17.13 7.69-17.13 17.13v182.29c0 9.45 7.69 17.13 17.13 17.13 2.76 0 5 2.24 5 5s-2.24 5-5 5c-14.96 0-27.13-12.17-27.13-27.13v-182.29c0-14.96 12.17-27.13 27.13-27.13h289.08c14.96 0 27.14 12.17 27.14 27.13v182.29c-.01 14.96-12.18 27.14-27.14 27.14z"/></g><g><path d="m364.65 353.65h-278.78c-7.39 0-13.4-6.01-13.4-13.4v-172c0-7.39 6.01-13.4 13.4-13.4h278.79c7.39 0 13.4 6.01 13.4 13.4v172c-.01 7.38-6.02 13.4-13.41 13.4zm-278.78-188.8c-1.84 0-3.4 1.56-3.4 3.4v172c0 1.84 1.56 3.4 3.4 3.4h278.79c1.84 0 3.4-1.56 3.4-3.4v-172c0-1.84-1.56-3.4-3.4-3.4z"/></g><g><path d="m441.26 417.37h-432c-2.76 0-5-2.24-5-5s2.24-5 5-5h432c2.76 0 5 2.24 5 5s-2.24 5-5 5z"/></g><g><g><path d="m315.27 145.97c-2.76 0-5-2.24-5-5v-24.53c-.06-.16-.54-.56-1.47-.72l-18.76-3.11c-1.84-.3-3.36-1.61-3.94-3.38-1.01-3.1-2.28-6.15-3.76-9.06-.85-1.66-.69-3.66.39-5.18l11.08-15.47c.54-.76.6-1.38.56-1.51l-17.97-17.97c-.16-.08-.78-.02-1.54.53l-15.47 11.08c-1.52 1.09-3.51 1.24-5.18.39-2.92-1.48-5.96-2.75-9.06-3.76-1.77-.58-3.08-2.1-3.38-3.94l-3.11-18.77c-.15-.92-.55-1.4-.67-1.47h-25.42c-.17.06-.56.54-.72 1.47l-3.11 18.77c-.3 1.84-1.61 3.36-3.38 3.94-3.09 1.01-6.14 2.27-9.06 3.76-1.66.85-3.66.69-5.18-.39l-15.47-11.08c-.76-.54-1.38-.6-1.51-.56l-17.98 17.98c-.07.16-.02.78.53 1.54l11.09 15.47c1.09 1.52 1.24 3.51.39 5.18-1.48 2.92-2.75 5.96-3.76 9.06-.58 1.77-2.1 3.07-3.94 3.38l-18.76 3.11c-.92.15-1.41.55-1.47.67v24.58c0 2.76-2.24 5-5 5s-5-2.24-5-5v-24.53c0-5.27 4.04-9.62 9.83-10.58l15.84-2.62c.61-1.63 1.28-3.24 2-4.82l-9.35-13.06c-3.42-4.77-3.2-10.71.53-14.44l17.95-17.95c3.73-3.73 9.67-3.95 14.44-.53l13.06 9.35c1.58-.72 3.19-1.39 4.82-2l2.62-15.84c.96-5.79 5.31-9.83 10.58-9.83h25.38c5.27 0 9.63 4.04 10.58 9.83l2.62 15.84c1.63.61 3.24 1.28 4.82 2l13.06-9.35c4.77-3.42 10.71-3.2 14.44.53l17.95 17.95c3.73 3.73 3.95 9.67.53 14.44l-9.35 13.06c.72 1.58 1.39 3.19 2 4.82l15.84 2.62c5.79.96 9.83 5.31 9.83 10.58v24.53c.01 2.75-2.23 4.99-4.99 4.99z"/></g><g><path d="m180.61 145.97c-2.21 0-4.24-1.48-4.83-3.72-1.13-4.26-1.7-8.68-1.7-13.12 0-28.22 22.96-51.18 51.18-51.18s51.18 22.96 51.18 51.18c0 4.44-.57 8.86-1.7 13.12-.71 2.67-3.44 4.26-6.11 3.56-2.67-.71-4.26-3.44-3.56-6.11.91-3.43 1.37-6.98 1.37-10.56 0-22.7-18.47-41.18-41.18-41.18s-41.18 18.47-41.18 41.18c0 3.58.46 7.14 1.37 10.56.71 2.67-.89 5.41-3.56 6.11-.42.1-.85.16-1.28.16z"/></g></g></g></svg>