<svg id="Layer_1" enable-background="new 0 0 70 70" viewBox="0 0 70 70" xmlns="http://www.w3.org/2000/svg"><g><path d="m65.845 35.955-3.91-1.63v-1.13c0-5.88-1.87-11.43-5.37-16.1 1.57-1.91 1.42-4.74-.41-6.46-5.75-5.4-13.27-8.38-21.16-8.38-7.88 0-15.4 2.98-21.16 8.38-1.83 1.72-1.97 4.55-.4 6.46-3.5 4.67-5.37 10.22-5.37 16.1v1.12l-3.91 1.64c-.87.37-1.43 1.21-1.43 2.16v12.37c0 .94.56 1.79 1.43 2.15l8.63 3.62c.16 1.57 1.48 2.81 3.1 2.81 1.73 0 3.13-1.4 3.13-3.13v-23.28c0-1.73-1.4-3.13-3.13-3.13-1.62 0-2.94 1.24-3.1 2.82l-3.22 1.35v-.5c0-5.51 1.74-10.71 4.99-15.1 1.88 1.2 4.22.93 5.79-.53 3.99-3.74 9.19-5.81 14.65-5.81 5.47 0 10.67 2.07 14.66 5.81.91.85 2.07 1.27 3.23 1.27.89 0 1.78-.25 2.56-.74 3.25 4.39 4.99 9.59 4.99 15.1v.5l-3.22-1.35c-.16-1.58-1.48-2.82-3.1-2.82-1.73 0-3.14 1.4-3.14 3.13v23.28c0 1.46 1.01 2.67 2.36 3.02-.17 2.61-2.32 4.69-4.97 4.69h-6.59c-.16-1.96-1.78-3.5-3.77-3.5h-5.46c-2.1 0-3.8 1.71-3.8 3.8 0 2.1 1.7 3.8 3.8 3.8h5.46c1.68 0 3.08-1.1 3.59-2.6h6.77c3.47 0 6.31-2.74 6.48-6.17 1.27-.31 2.23-1.39 2.37-2.72l8.63-3.62c.87-.36 1.43-1.21 1.43-2.15v-12.37c0-.95-.56-1.79-1.43-2.16zm-53.09-1.97v20.63l-8.02-3.36c-.31-.13-.51-.43-.51-.77v-12.37c0-.34.2-.64.51-.77zm53.02 16.5c0 .34-.2.64-.51.77l-8.02 3.36v-20.63l8.02 3.36c.31.13.51.43.51.77z"/><path d="m22.414 47.788c.285.3.696.435 1.105.362l5.574-1c5.272 2.784 11.868 1.812 16.126-2.433.001 0 .001-.001.002-.001 5.351-5.364 5.351-14.082-.002-19.433-5.363-5.351-14.08-5.35-19.432 0-4.237 4.236-5.228 10.814-2.457 16.094l-1.223 5.289c-.092.403.022.822.307 1.122zm4.435-21.444c4.768-4.767 12.532-4.767 17.312 0 4.767 4.766 4.767 12.532 0 17.312-3.845 3.833-9.838 4.678-14.577 2.053-.111-.062-.237-.094-.363-.094-.044 0-.089.004-.133.012l-5.425.973 1.193-5.16c.042-.18.016-.37-.074-.532-2.619-4.739-1.769-10.729 2.067-14.564z"/><path d="m35.505 25.633c-5.158 0-9.362 4.204-9.362 9.362 0 5.167 4.204 9.362 9.362 9.362s9.362-4.195 9.362-9.362c0-5.158-4.204-9.362-9.362-9.362zm.75 13.992c0 .41-.34.75-.75.75s-.75-.34-.75-.75v-.15c0-.42.34-.75.75-.75s.75.33.75.75zm0-3.35v.67c0 .41-.34.75-.75.75s-.75-.34-.75-.75v-1.34c0-.41.34-.75.75-.75 1.03 0 1.87-.84 1.87-1.87 0-1.02-.84-1.86-1.87-1.86s-1.87.84-1.87 1.86c0 .42-.33.75-.75.75-.41 0-.75-.33-.75-.75 0-1.85 1.51-3.36 3.37-3.36s3.37 1.51 3.37 3.36c0 1.6-1.12 2.94-2.62 3.29z"/></g></svg>