<svg id="Outline" height="512" viewBox="0 0 64 64" width="512" xmlns="http://www.w3.org/2000/svg"><g fill="rgb(0,0,0)"><path d="m36 12.00049h-7c-.55273 0-1 .44775-1 1s.44727 1 1 1h7c.55273 0 1-.44775 1-1s-.44727-1-1-1z"/><path d="m41 12.00049h-1c-.55273 0-1 .44775-1 1s.44727 1 1 1h1c.55273 0 1-.44775 1-1s-.44727-1-1-1z"/><path d="m46 12.00049h-1c-.55273 0-1 .44775-1 1s.44727 1 1 1h1c.55273 0 1-.44775 1-1s-.44727-1-1-1z"/><path d="m30 33.00049h1c.55273 0 1-.44775 1-1s-.44727-1-1-1h-1c-.55273 0-1 .44775-1 1s.44727 1 1 1z"/><path d="m25 33.00049h1c.55273 0 1-.44775 1-1s-.44727-1-1-1h-1c-.55273 0-1 .44775-1 1s.44727 1 1 1z"/><path d="m29 50.00049h-1c-.55273 0-1 .44775-1 1s.44727 1 1 1h1c.55273 0 1-.44775 1-1s-.44727-1-1-1z"/><path d="m34 50.00049h-1c-.55273 0-1 .44775-1 1s.44727 1 1 1h1c.55273 0 1-.44775 1-1s-.44727-1-1-1z"/><path d="m51 41.00049c-5.17615 0-9.44574 3.95367-9.94928 9h-2.05072v-4c0-1.10303-.89746-2-2-2h-22c-1.10254 0-2 .89697-2 2v3.97467c-4.45349-.26105-8-3.95642-8-8.47467 0-4.68701 3.81348-8.5 8.5-8.5h6.5v4c0 1.10303.89746 2 2 2h22c1.10254 0 2-.89697 2-2v-4h4.5c5.79004 0 10.5-4.71045 10.5-10.5 0-5.62079-4.44287-10.21106-10-10.47467v-4.02533c0-1.10303-.8623-2-1.92285-2h-22.1543c-1.06055 0-1.92285.89697-1.92285 2v4h-2v-1c0-.50439-.37598-.92969-.87598-.99219l-1.45898-.18262.90234-1.16113c.30957-.39795.27441-.96436-.08203-1.3208l-2.82813-2.82813c-.35742-.35645-.92285-.3916-1.32129-.08252l-1.16113.90333-.18262-1.45996c-.06249-.50049-.48827-.87598-.99218-.87598h-4c-.50391 0-.92969.37549-.99219.87598l-.18261 1.45996-1.16114-.90332c-.39843-.30909-.96386-.27393-1.32129.08252l-2.82812 2.82812c-.35645.35645-.3916.92285-.08203 1.3208l.90234 1.16113-1.45898.18262c-.5.0625-.87598.48779-.87598.99219v4c0 .50439.375.92969.87598.99219l1.45898.18262-.90234 1.16113c-.30957.39795-.27441.96436.08203 1.3208l2.82813 2.82861c.35742.35742.92285.3916 1.32129.08252l1.16113-.90332.18262 1.45947c.06249.50049.48827.87598.99218.87598h4c.50391 0 .92969-.37549.99219-.87598l.18262-1.45947 1.16113.90332c.39844.30908.96387.2749 1.32129-.08252l2.82813-2.82861c.35645-.35645.3916-.92285.08203-1.3208l-.90234-1.16113 1.45898-.18262c.50097-.0625.87597-.4878.87597-.99219v-1h2v4c0 1.10303.8623 2 1.92285 2h22.1543c1.06055 0 1.92285-.89697 1.92285-2v-3.97467c4.45349.26105 8 3.95642 8 8.47467 0 4.68701-3.81348 8.5-8.5 8.5h-4.5v-4c0-1.10303-.89746-2-2-2h-22c-1.10254 0-2 .89697-2 2v4h-6.5c-5.79004 0-10.5 4.71045-10.5 10.5 0 5.62079 4.44287 10.21106 10 10.47467v4.02533c0 1.10303.89746 2 2 2h22c1.10254 0 2-.89697 2-2v-4h2.05072c.50354 5.04633 4.77313 9 9.94928 9 5.51367 0 10-4.48584 10-10s-4.48633-10-10-10zm-30-26.88281-2.32813.2915c-.35645.04443-.66211.27734-.7998.60938-.1377.33252-.08594.71289.13477.99658l1.44043 1.85205-1.58008 1.58057-1.85254-1.44092c-.2832-.22021-.66406-.27246-.99707-.13428-.33203.1377-.56445.44287-.60938.7998l-.29102 2.32813h-2.23438l-.29102-2.32813c-.04492-.35693-.27734-.66211-.60938-.7998-.33105-.13818-.71289-.0874-.99707.13428l-1.85254 1.44092-1.58008-1.58057 1.44043-1.85205c.2207-.28369.27246-.66406.13477-.99658-.1377-.33203-.44336-.56494-.7998-.60938l-2.32811-.2915v-2.23438l2.32813-.29102c.35645-.04443.66211-.27734.7998-.60938.1377-.33252.08594-.71289-.13477-.99658l-1.44043-1.85253 1.58008-1.58008 1.85254 1.44092c.28418.2207.66504.27246.99707.13428.33203-.1377.56445-.44287.60938-.7998l.29102-2.32861h2.23438l.291 2.3286c.04492.35693.27734.66211.60938.7998.33203.13721.71289.08594.99707-.13428l1.85254-1.44092 1.58008 1.58008-1.44043 1.85254c-.2207.28369-.27246.66406-.13477.99658.1377.33203.44336.56494.7998.60938l2.32813.29102zm6 3.88281-.03717-4.8158c.01196-.06183.03717-.11883.03717-.1842 0-.07056-.02625-.13251-.0401-.19891l-.03705-4.80109h22.07715l-.00586 10zm-5 9h22v10h-22l-.00049-4.99756c0-.00085.00049-.00159.00049-.00244s-.00049-.00159-.00049-.00244l-.00049-4.99756zm-7 29v-10h22l.00098 4.99518c0 .00171-.00098.00311-.00098.00482s.00098.00311.00098.00482l.00098 4.99518zm36 3c-4.41113 0-8-3.58887-8-8s3.58887-8 8-8 8 3.58887 8 8-3.58887 8-8 8z"/><path d="m13 9.00049c-2.20605 0-4 1.79443-4 4s1.79395 4 4 4 4-1.79443 4-4-1.79395-4-4-4zm0 6c-1.10254 0-2-.89697-2-2s.89746-2 2-2 2 .89697 2 2-.89746 2-2 2z"/><path d="m54.23145 47.36035-4.29883 5.15869-2.22559-2.22607c-.39063-.39063-1.02344-.39063-1.41406 0-.39063.39014-.39063 1.02344 0 1.41406l3 3.00049c.1875.18799.44238.29297.70703.29297.01465 0 .03027-.00049.04492-.00098.28125-.0127.54297-.14307.72363-.35889l5-6c.35352-.42432.2959-1.05469-.12793-1.4082-.42578-.354-1.05566-.29541-1.40917.12793z"/><path d="m35 33.00049h6c.55273 0 1-.44775 1-1s-.44727-1-1-1h-6c-.55273 0-1 .44775-1 1s.44727 1 1 1z"/><path d="m24 50.00049h-6c-.55273 0-1 .44775-1 1s.44727 1 1 1h6c.55273 0 1-.44775 1-1s-.44727-1-1-1z"/></g></svg>