<svg id="svg4229" clip-rule="evenodd" fill-rule="evenodd" height="512" stroke-linecap="round" stroke-linejoin="round" stroke-miterlimit="1.5" viewBox="0 0 48 48" width="512" xmlns="http://www.w3.org/2000/svg" xmlns:svg="http://www.w3.org/2000/svg"><g id="g36758" fill="#2196f3" transform="translate(-648 -144)"><path id="path36658" d="m682.5 157.5a10.5 10.5 0 0 1 -10.5 10.5 10.5 10.5 0 0 1 -10.5-10.5 10.5 10.5 0 0 1 10.5-10.5 10.5 10.5 0 0 1 10.5 10.5z" vector-effect="none"/><path id="path36660" d="m661.87764 168.46419c-4.96507 3.12056-8.38946 8.4674-8.86983 14.64128-.0642.82572.5529 1.77623 1.31641 2.09765 11.51791 4.84899 23.28079 5.26511 35.35937.0176.75979-.33009 1.3729-1.28952 1.3086-2.11523-.48037-6.17388-3.90475-11.52071-8.86982-14.64127-.70122-.44072-1.80459-.30034-2.48737.16807-2.23794 1.53532-4.89786 2.36732-7.635 2.36771-2.73714-.0004-5.39706-.8324-7.63501-2.36773-.68277-.46841-1.78613-.60879-2.48735-.16808z" vector-effect="none"/></g></svg>