<svg id="Layer_1" viewBox="0 0 512 512" xmlns="http://www.w3.org/2000/svg" data-name="Layer 1"><path d="m11.42 58.1a199.779 199.779 0 0 1 58.964-53.471 31.706 31.706 0 0 1 33.491.3l22.407 13.941a32.011 32.011 0 0 1 8.962 8.142 32.356 32.356 0 0 1 5.189 10.888l25.472 95.012a31.66 31.66 0 0 1 -8.349 31.152l-19.67 19.7a31.824 31.824 0 0 0 -5.986 37.626c15.944 31.43 39.859 63.1 67.738 90.969s59.53 51.808 90.993 67.761a31.795 31.795 0 0 0 37.6-5.991l19.718-19.708a31.664 31.664 0 0 1 31.133-8.33l95.049 25.491a31.67 31.67 0 0 1 19.01 14.119l13.916 22.41a31.865 31.865 0 0 1 4.943 16.727 32.353 32.353 0 0 1 -4.623 16.76 199.28 199.28 0 0 1 -23.777 32.194 202.183 202.183 0 0 1 -29.718 26.77 46.545 46.545 0 0 1 -22.406 8.977 302 302 0 0 1 -78.446-.2c-85.049-11.1-167.127-56.2-230.667-119.721-63.489-63.509-108.584-145.586-119.717-230.636a303.516 303.516 0 0 1 -.188-78.482 47.322 47.322 0 0 1 3.018-11.789 48.6 48.6 0 0 1 5.944-10.611z" fill="#0291f7" fill-rule="evenodd"/></svg>