<svg id="Layer_1" enable-background="new 0 0 512 512" viewBox="0 0 512 512" xmlns="http://www.w3.org/2000/svg"><g clip-rule="evenodd" fill-rule="evenodd"><path d="m162.98 323.93 29.3-82.37c1.11-3.12 4.53-4.75 7.66-3.64 3.12 1.11 4.75 4.54 3.64 7.66l-29.29 82.37c-.88 2.46-3.19 3.99-5.66 3.99-.66 0-1.34-.11-2.01-.35-3.12-1.11-4.75-4.54-3.64-7.66zm103.38-39.18-27.04-29.18c-2.25-2.43-2.11-6.23.32-8.48 2.44-2.25 6.23-2.11 8.48.33l30.82 33.26c2.13 2.3 2.13 5.86 0 8.15l-30.82 33.26c-1.18 1.28-2.79 1.92-4.4 1.92-1.46 0-2.92-.53-4.08-1.6-2.43-2.25-2.57-6.05-.32-8.48zm49.09 94.8v-186.17h-264.33v186.18h264.33zm-215.24-94.8 27.04 29.18c2.25 2.43 2.1 6.23-.33 8.48-1.15 1.07-2.62 1.6-4.08 1.6-1.61 0-3.21-.65-4.4-1.92l-30.81-33.26c-2.14-2.3-2.14-5.86 0-8.15l30.81-33.26c2.26-2.43 6.05-2.58 8.48-.33s2.58 6.05.33 8.48z" fill="#2a7abd"/><path d="m45.12 181.38h276.33c3.31 0 6 2.69 6 6v192.17h14.52v-195.54c0-8.62-7.01-15.63-15.62-15.63h-286.13c-8.62 0-15.63 7.01-15.63 15.63v195.54h14.53v-192.17c0-3.32 2.68-6 6-6z" fill="#1d5074"/><path d="m341.97 391.55h-317.38v14.5c0 8.61 7.01 15.62 15.63 15.62h286.13c8.61 0 15.62-7.01 15.62-15.62zm-141.95 15.06c0 3.31-2.68 6-6 6h-21.48c-3.31 0-6-2.69-6-6s2.69-6 6-6h21.48c3.32.01 6 2.69 6 6z" fill="#1d5074"/><path d="m211.7 433.68h-56.83l-15.11 30.71h87.05z" fill="#2a7abd"/><path d="m252.17 476.38h-137.77c-2.48 0-4.5 2.02-4.5 4.5 0 2.47 2.02 4.49 4.5 4.49h137.77c2.48 0 4.49-2.02 4.49-4.49s-2.01-4.5-4.49-4.5z" fill="#1d5074"/><path d="m353.97 215.39h100.65v113.39h-100.65z" fill="#2a7abd"/><path d="m460.62 340.78h-106.65v19.22h119.68c4.94 0 8.94-4.01 8.94-8.94v-260.84h-363.81v66.16h207.57c15.23 0 27.62 12.39 27.62 27.63v19.38h106.65c3.31 0 6 2.69 6 6v125.39c0 3.32-2.69 6-6 6zm0-156.69h-83.62c-3.32 0-6-2.68-6-6 0-3.31 2.68-6 6-6h83.62c3.31 0 6 2.69 6 6 0 3.32-2.69 6-6 6zm0-31.28h-83.62c-3.32 0-6-2.69-6-6 0-3.32 2.68-6 6-6h83.62c3.31 0 6 2.69 6 6s-2.69 6-6 6zm0-31.3h-319.88c-3.32 0-6-2.68-6-6 0-3.31 2.68-6 6-6h319.88c3.31 0 6 2.69 6 6 0 3.32-2.69 6-6 6z" fill="#1d5074"/><path d="m118.78 78.22h363.81v-41.9c0-4.93-4-8.95-8.94-8.95h-345.92c-4.93 0-8.95 4.01-8.95 8.95zm130.7-19.42h-14.6c-3.31 0-6-2.69-6-6 0-3.32 2.69-6 6-6h14.6c3.31 0 6 2.69 6 6s-2.69 6-6 6zm-40.63 0h-14.59c-3.31 0-6-2.69-6-6 0-3.32 2.69-6 6-6h14.59c3.32 0 6 2.69 6 6s-2.68 6-6 6zm-40.62 0h-14.6c-3.31 0-6-2.69-6-6 0-3.32 2.69-6 6-6h14.6c3.31 0 6 2.69 6 6s-2.69 6-6 6z" fill="#2a7abd"/></g></svg>