<svg id="Line_Gradient" viewBox="0 0 64 64" xmlns="http://www.w3.org/2000/svg" xmlns:xlink="http://www.w3.org/1999/xlink" data-name="Line Gradient"><linearGradient id="linear-gradient" gradientUnits="userSpaceOnUse" x1="4" x2="60" y1="32" y2="32"><stop offset="0" stop-color="#00c0ff"/><stop offset="1" stop-color="#5558ff"/></linearGradient><path d="m34.20154 21.60291a5.1478 5.1478 0 0 1 -1.90552-.35145.80524.80524 0 0 0 -1.09149.73993v9.21314l-8.32526.00006c1.262-3.90833-1.42437-8.912-5.28155-8.78754-3.84217-.12323-6.55811 4.88117-5.27265 8.78748h-8.32507v-23.73578a3.47 3.47 0 0 1 3.46875-3.46875h23.73578v9.20386c.186 1.57885 1.95349.21 2.997.3977 2.56225 0 4.65277 1.79456 4.65277 3.996.00001 2.21085-2.09051 4.00535-4.65276 4.00535zm22.32971-17.60291h-23.73578v8.14929c3.70349-.86279 7.73963 1.86713 7.65906 5.44837.0824 3.57928-3.95673 6.32525-7.65912 5.45739l.00006 8.14948h9.90686a.83746.83746 0 0 1 .36078.09247.7842.7842 0 0 1 .37 1.00824c-1.30457 2.78357.54589 7.08526 3.46887 6.96521 2.13666.00012 3.88495-2.15515 3.88495-4.81922a5.82575 5.82575 0 0 0 -.41626-2.146.79921.79921 0 0 1 .73077-1.10071h5.42981a3.476 3.476 0 0 0 3.46875-3.4688v-20.26697a3.47 3.47 0 0 0 -3.46875-3.46875zm-25.32666 38.62848-.00006-9.833h-9.4906a.72634.72634 0 0 1 -.3053-.06476.79637.79637 0 0 1 -.42548-1.04528c1.587-2.914-.17126-7.75025-3.38568-7.66822-3.19067-.08117-4.97455 4.71625-3.39447 7.63129a.80521.80521 0 0 1 -.79565 1.14691l-9.40735.00011v23.73566a3.47 3.47 0 0 0 3.46875 3.46881h20.267a3.476 3.476 0 0 0 3.46881-3.46881v-3.367c-4.04419 1.35138-9.50708-1.35223-9.361-5.2727-.15124-3.917 5.32703-6.61665 9.36103-5.26301z" fill="url(#linear-gradient)"/></svg>