<svg id="Icon" viewBox="0 0 24 24" xmlns="http://www.w3.org/2000/svg" xmlns:xlink="http://www.w3.org/1999/xlink"><linearGradient id="Gradient_2_color" gradientUnits="userSpaceOnUse" x1="6.061" x2="17.94" y1="22.789" y2="2.213"><stop offset="0" stop-color="#5433ff"/><stop offset="1" stop-color="#20bdff"/></linearGradient><path d="m2.25 19c0 1.52 1.23 2.75 2.75 2.75h14c1.52 0 2.75-1.23 2.75-2.75v-8.75h-19.5zm13.75-5.75h2c.414 0 .75.336.75.75s-.336.75-.75.75h-2c-.414 0-.75-.336-.75-.75s.336-.75.75-.75zm0 4h2c.414 0 .75.336.75.75s-.336.75-.75.75h-2c-.414 0-.75-.336-.75-.75s.336-.75.75-.75zm-5-4h2c.414 0 .75.336.75.75s-.336.75-.75.75h-2c-.414 0-.75-.336-.75-.75s.336-.75.75-.75zm0 4h2c.414 0 .75.336.75.75s-.336.75-.75.75h-2c-.414 0-.75-.336-.75-.75s.336-.75.75-.75zm-5-4h2c.414 0 .75.336.75.75s-.336.75-.75.75h-2c-.414 0-.75-.336-.75-.75s.336-.75.75-.75zm0 4h2c.414 0 .75.336.75.75s-.336.75-.75.75h-2c-.414 0-.75-.336-.75-.75s.336-.75.75-.75zm15.75-11.25v2.75h-19.5v-2.75c0-1.517 1.233-2.75 2.75-2.75h2.25v1.75c0 .414.336.75.75.75s.75-.336.75-.75v-1.75h6.5v1.75c0 .414.336.75.75.75s.75-.336.75-.75v-1.75h2.25c1.517 0 2.75 1.233 2.75 2.75zm-13-2.75h-1.5v-.25c0-.414.336-.75.75-.75s.75.336.75.75zm8 0h-1.5v-.25c0-.414.336-.75.75-.75s.75.336.75.75z" fill="url(#Gradient_2_color)"/></svg>