<svg id="Layer_1" enable-background="new 0 0 100 100" viewBox="0 0 100 100" xmlns="http://www.w3.org/2000/svg"><path d="m90.5575104 43.088295-15.7888641 15.788868c-4.4379578 4.4379539-10.497467 6.9129677-16.8130074 6.9129601-6.3155479 0-12.3750572-2.4750099-16.8130074-6.9129601l-1.9629402-1.9629402c-1.0241432-1.0241432-1.4508705-2.6457024-1.1094856-4.0112267.4267235-1.4508629 1.5362167-2.5603561 2.9870796-2.9870796 1.4508667-.4267273 2.9870834.0853424 4.0112267 1.1094856l1.9629402 1.9629402c2.901741 2.9017372 6.7422714 4.5232964 10.8388443 4.5232964s7.9371071-1.6215591 10.8388481-4.5232964l15.7888641-15.788868c3.9258804-3.9258766 5.4620972-9.5586681 3.9258804-14.850069-1.3655243-5.2914066-5.5474396-9.473321-10.8388443-10.8388433-5.2914124-1.3655224-11.0095367.0853434-14.8500748 3.9258785l-13.7405852 13.7405862c-1.0241432 1.0241432-2.6457024 1.4508686-4.0112267 1.1094875-1.4508667-.4267273-2.5603561-1.5362167-2.9870834-2.9870834-.4267273-1.4508686.0853462-2.9870834 1.1094894-4.0112267l13.8259316-13.8259286c5.9741631-5.9741659 14.7647247-8.2784872 22.9578629-6.2302008 8.1931381 2.2189746 14.5940323 8.6198692 16.8130112 16.8130093 2.1336364 8.2784901-.1706926 17.0690441-6.1448594 23.043211zm-33.6260147 27.6518555c-.7681084-.7681122-1.8776016-1.1948395-2.9870834-1.2801819-1.1948357 0-2.1336327.4267273-2.9870834 1.2801819l-13.8259278 13.8259201c-3.9258804 3.9258804-9.5586662 5.4620972-14.850069 3.9258804-5.2914066-1.3655243-9.47332-5.5474396-10.8388453-10.8388443s.0853443-11.0095367 3.9258795-14.8500671l15.788866-15.788868c2.9017391-2.9017372 6.7422695-4.5232964 10.8388462-4.5232964s7.9371033 1.6215591 10.8388405 4.5232964l1.9629402 1.9629402c1.0241432 1.0241432 2.6457062 1.4508705 4.0112267 1.1094894 1.4508667-.4267273 2.5603561-1.5362167 2.9870834-2.9870834s-.0853424-2.9870834-1.1094856-4.0112267l-1.8775902-1.8775902c-4.4379539-4.4379501-10.4974632-6.9129639-16.8130112-6.9129639s-12.3750572 2.4750137-16.8130054 6.9129601l-15.7035265 15.7035256c-5.974165 5.9741669-8.2784872 14.7647247-6.2302017 22.9578629 2.2189746 8.1931458 8.6198664 14.5940323 16.8130112 16.8130112s16.8983536-.1706924 22.9578629-6.2302017l13.8259277-13.8259277c.7681084-.7681046 1.1948318-1.877594 1.2801781-2.9870834-.0000011-1.0241396-.4267246-2.133629-1.1948329-2.9017335z" fill="#00adf6"/></svg>