<svg clip-rule="evenodd" fill-rule="evenodd" height="1.707in" image-rendering="optimizeQuality" shape-rendering="geometricPrecision" text-rendering="geometricPrecision" viewBox="0 0 1.70666 1.70666" width="1.707in" xmlns="http://www.w3.org/2000/svg"><g id="Layer_x0020_1"><path d="m1.43745 1.68957c-.338378 0-.36287-.193339-.0467087-.212067.0204882-.0012126.0303189.0332953.0467087.0660827.0161535-.0323268.0262402-.0672756.0466772-.0660827.315173.0183622.292756.212067-.0466772.212067zm-.0573228-.171154c-.110791.00933071-.171807.0433465-.171807.0643858 0 .0272244.0892677.0667677.229126.0667677.139858 0 .229122-.0395433.229122-.0667677 0-.0210551-.0610276-.0550709-.171823-.0644016l-.0394173.0788425c-.00737795.0147559-.0284291.014689-.0357795.00001575l-.0394213-.0788425z"/><path d="m.253713 1.36908h-.145748c-.0110394 0-.02-.00897244-.02-.02v-.478665c0-.0110394.00896063-.02.02-.02h.145748c.0110394 0 .02.00896063.02.02v.47865c0 .0110433-.00894488.0200157-.02.0200157zm-.125748-.0400118h.105748v-.438638h-.105748z"/><path d="m.59139 1.08841h-.135969c-.0110394 0-.02-.00897244-.02-.02v-.123724c0-.0110394.00896063-.02.02-.02h.135969c.0110394 0 .02.00897244.02.02v.123724c0 .0110276-.00895276.02-.02.02zm-.115969-.0400118h.0959685v-.0837047l-.0959685-.00000787v.0837126z"/><path d="m.842697 1.08841h-.135957c-.0110394 0-.02-.00897244-.02-.02v-.123724c0-.0110394.00896063-.02.02-.02h.135957c.0110394 0 .02.00897244.02.02v.123724c0 .0110276-.00896063.02-.02.02zm-.115957-.0400118h.0959567v-.0837047l-.0959567-.00000787v.0837126z"/><path d="m1.0362.191272h-.522961c-.0110394 0-.02-.00896063-.02-.02v-.134177c0-.0110394.00896063-.02.02-.02h.522961c.0110394 0 .02.00896063.02.02v.134177c0 .0110472-.00896063.02-.02.02zm-.502961-.04h.482961v-.0941772h-.482961z"/><path d="m.53324.151272h.48296v-.0941775h-.48296z" fill="#b8acac"/><path d="m1.07399.964697-.095943-.000008v.083711h.095943z" fill="#4dd5ed"/><path d="m.822697 1.0484v-.083703l-.095957-.000008v.083711z" fill="#4dd5ed"/><path d="m.57139 1.0484v-.083703l-.095969-.000008v.083711z" fill="#4dd5ed"/><path d="m.233713 1.32907v-.438641h-.105748v.438641z" fill="#f3eae6"/><path d="m.341685 1.5275h-.321681c-.0110394 0-.0199961-.00897244-.0199961-.02v-.795504c0-.00780315.00453937-.0148858.0116102-.0181654l.321677-.148472c.0131969-.00610236.028378.00361024.028378.0181614l-.00000394.94398c.00001575.0110394-.00892913.02-.0199843.02zm-.301681-.0400157h.281681v-.892693l-.281681.130016z"/><path d="m.59139.433661h-.135969c-.0110394 0-.02-.00896063-.02-.02v-.12372c0-.0110394.00896063-.02.02-.02h.135969c.0110394 0 .02.00896063.02.02v.12372c0 .0110433-.00895276.02-.02.02zm-.115969-.0399961h.0959685v-.0837205l-.0959685-.00000394v.0837244z"/><path d="m.842697.433661h-.135957c-.0110394 0-.02-.00896063-.02-.02v-.12372c0-.0110394.00896063-.02.02-.02h.135957c.0110394 0 .02.00896063.02.02v.12372c0 .0110433-.00896063.02-.02.02zm-.115957-.0399961h.0959567v-.0837205l-.0959567-.00000394v.0837244z"/><path d="m1.094.433661h-.135957c-.0110394 0-.02-.00896063-.02-.02v-.12372c0-.0110394.00897244-.02.02-.02h.135957c.0110394 0 .02.00896063.02.02v.12372c.00001181.0110433-.00896063.02-.02.02zm-.115957-.0399961h.0959409v-.0837205l-.0959409-.00000394v.0837244z"/><path d="m.59139.651913h-.135969c-.0110394 0-.02-.00896063-.02-.02v-.12372c0-.0110394.00896063-.02.02-.02h.135969c.0110394 0 .02.00896063.02.02v.12372c0 .0110433-.00895276.02-.02.02zm-.115969-.04h.0959685v-.0837205h-.0959685z"/><path d="m.842697.651913h-.135957c-.0110394 0-.02-.00896063-.02-.02v-.12372c0-.0110394.00896063-.02.02-.02h.135957c.0110394 0 .02.00896063.02.02v.12372c0 .0110433-.00896063.02-.02.02zm-.115957-.04h.0959567v-.0837205h-.0959567z"/><path d="m1.094.651913h-.135957c-.0110394 0-.02-.00896063-.02-.02v-.12372c0-.0110394.00897244-.02.02-.02h.135957c.0110394 0 .02.00896063.02.02v.12372c.00001181.0110433-.00896063.02-.02.02zm-.115957-.04h.0959409v-.0837205h-.0959409z"/><path d="m.59139.870165h-.135969c-.0110394 0-.02-.00896063-.02-.02v-.123736c0-.0110394.00896063-.02.02-.02h.135969c.0110394 0 .02.00896063.02.02v.123736c0 .0110394-.00895276.02-.02.02zm-.115969-.04h.0959685v-.0837362h-.0959685z"/><path d="m.842697.870165h-.135957c-.0110394 0-.02-.00896063-.02-.02v-.123736c0-.0110394.00896063-.02.02-.02h.135957c.0110394 0 .02.00896063.02.02v.123736c0 .0110394-.00896063.02-.02.02zm-.115957-.04h.0959567v-.0837362h-.0959567z"/><path d="m1.094.870165h-.135957c-.0110394 0-.02-.00896063-.02-.02v-.123736c0-.0110394.00897244-.02.02-.02h.135957c.0110394 0 .02.00896063.02.02v.123736c.00001181.0110394-.00896063.02-.02.02zm-.115957-.04h.0959409v-.0837362h-.0959409z"/><g fill="#4dd5ed"><path d="m.57139.393665v-.08372l-.095969-.000004v.083724z"/><path d="m.72674.309941v.083724h.095957v-.08372z"/><path d="m.978047.309941v.083724h.095943v-.08372z"/><path d="m1.07399.528193h-.095943v.08372h.095943z"/><path d="m.822697.611913v-.08372h-.095957v.08372z"/><path d="m.57139.611913v-.08372h-.095969v.08372z"/><path d="m.57139.746429h-.095969v.083736h.095969z"/><path d="m.72674.746429v.083736h.095957v-.083736z"/><path d="m.978047.746429v.083736h.095943v-.083736z"/></g><path d="m.107965.850413h.145748c.0110394 0 .02.00896063.02.02v.47865c0 .0110433-.00894488.0200157-.02.0200157h-.145748c-.0110394 0-.02-.00897244-.02-.02v-.478665c0-.0110394.00896063-.02.02-.02zm-.0679606.637071h.281681v-.892693l-.281681.130016z" fill="#b8acac"/><path d="m1.22855.595161c.0001811.136366.00015354.277283-.00052756.362524.0323031-.0400118.0748268-.069122.121854-.0852795.0138386-.00477559.028185-.00844882.0429331-.0109173.0380748-.00641732.0778346-.00471654.116622.00605118v-.14274l-.280882-.129638z" fill="#b8acac"/><path d="m1.66657 1.5828c0-.0210551-.0610276-.0550709-.171823-.0644016l-.0394173.0788425c-.00737795.0147559-.0284291.014689-.0357795.00001575l-.0394213-.0788425c-.110791.00933071-.171807.0433465-.171807.0643858 0 .0272244.0892677.0667677.229126.0667677.139858 0 .229122-.0395433.229122-.0667677z" fill="#ff82a0"/><path d="m1.43745 1.6083c-.00758661 0-.0145-.00429528-.0178898-.0110709l-.119291-.238583c-.0815945-.0484055-.132043-.136583-.132043-.231654 0-.148449.120768-.269209.269224-.269209.148445 0 .269205.120768.269205.269209 0 .0950709-.0504291.183248-.132024.231654l-.119291.238583c-.00338976.00679134-.010311.0110709-.0178898.0110709zm0-.7105c-.235303 0-.316189.314457-.112169.429122.00348819.00196063.00629528.00492126.00808661.00848819l.104083.208169.104083-.208169c.00179134-.00358268.00459843-.00653937.00808661-.00848819.20374-.114213.123449-.429122-.112169-.429122z"/><path d="m1.43745 1.26897c-.0782795 0-.141972-.0636811-.141972-.141957 0-.0782795.0636929-.141976.141972-.141976.0782795 0 .141957.0636969.141957.141976 0 .0782756-.0636929.141957-.141957.141957zm0-.243917c-.0562205 0-.101957.0457402-.101957.101961 0 .0562205.0457362.101941.101957.101941.0562205 0 .101941-.0457205.101941-.101941s-.0457323-.101961-.101941-.101961z"/><path d="m.944362 1.5275h-.339291c-.0110394 0-.02-.00897244-.02-.02v-.320421c0-.0110394.00896063-.02.02-.02h.33928c.0110394 0 .02.00897244.02.02v.320421c.00001181.0110394-.00894488.02-.0199882.02zm-.319291-.0400157h.29928v-.28039h-.29928z"/><path d="m1.094 1.08841h-.135957c-.0110394 0-.02-.00897244-.02-.02v-.123724c0-.0110394.00897244-.02.02-.02h.135957c.0110394 0 .02.00897244.02.02v.123724c.00001181.0110276-.00896063.02-.02.02zm-.115957-.0400118h.0959409v-.0837047l-.0959409-.00000787v.0837126z"/><path d="m.92435 1.20709h-.299279v.28039h.299279z" fill="#4dd5ed"/><path d="m1.43745 1.02505c-.0562205 0-.101957.0457402-.101957.101961 0 .0562205.0457362.101941.101957.101941.0562205 0 .101941-.0457205.101941-.101941s-.0457323-.101961-.101941-.101961z" fill="#b8acac"/><path d="m1.3002715 1.358645c-.0138661-.00822441-.0268307-.0175984-.0388031-.0279606-.00464961-.00402362-.00914961-.00819685-.0134961-.0125118-.00714961-.00709449-.0139055-.0145866-.0202244-.0224331l.00000787.19174h.080874c.0160236-.00313386.0334331-.00570079.0522283-.00760236l-.0605866-.121232z" fill="#b8acac"/><path d="m1.33337 1.33541.0770669.154134c.00921654.0127283.0168583.0337126.0270157.0540354.0100079-.0200276.017689-.041063.0269409-.0538858l.0771417-.154283c.00179134-.00358268.00459843-.00653937.00808661-.00848819.20374-.114213.123449-.429122-.112169-.429122-.235303 0-.316189.314457-.112169.429122.00348819.00196063.00629528.00492126.00808661.00848819zm.104083-.0664449c-.0782795 0-.141972-.0636811-.141972-.141957 0-.0782795.0636929-.141976.141972-.141976.0782795 0 .141957.0636969.141957.141976 0 .0782756-.0636929.141957-.141957.141957z" fill="#ff537c"/><path d="m1.20775 1.5275h-.866067c-.0110394 0-.02-.00897244-.02-.02v-1.28674c0-.0383189.0311654-.0694843.0694843-.0694843l.767098-.00000787c.0383189 0 .0694843.0311654.0694843.0694882 0 .0772756.00282677.806732-.00156693.817197-.0417441.099437.00156693.173626.00156693.18589v.283654c0 .0110394-.0089685.02-.02.02zm-.846067-.0400157h.826051v-.259697c-.0129606-.0320591-.0195118-.0659331-.0195118-.100776 0-.0348622.00656693-.068752.0195118-.100803v-.805445c0-.016252-.0132205-.0294843-.0294685-.0294843l-.767098-.00000787c-.016252 0-.0294843.0132362-.0294843.0294882v1.26672z"/><path d="m1.52943 1.5275c-.0290512 0-.0594764.00524409-.0685945-.00950394-.00365354-.00588976-.00397244-.013248-.00087402-.0194409l.0515827-.103181c.00941339-.0188268.0378898-.0120236.0378898.00892913v.103181c-.00000394.0110551-.00896063.0200157-.0200039.0200157zm-.132138 0h-.189559c-.0110394 0-.02-.00897244-.02-.02v-.283665c0-.0216417.0299921-.0277795.0384173-.00776378.0370157.0879409.0989055.102831.107181.11935.0104606.0208976.0839567.161614.0839567.172083.00000394.0110354-.00894094.0199961-.0199961.0199961zm-.169543-.0400157h.136906l-.0644173-.128819c-.0277795-.0165-.0523465-.0379016-.0724961-.0629213l-.00000787.19174h.00001575zm-.0199843-.437307c-.0110157 0-.0200079-.00895276-.0200079-.02l-.00000787-.466654c0-.0145551.0151654-.024252.0283898-.0181614l.321681.148472c.00707874.00326378.011626.0103622.011626.0181693v.183331c0 .0141102-.014315.0237756-.0274016.0185669-.11463-.0456063-.246945.0080748-.295874.124043-.00316929.00752362-.0105039.0122323-.0184055.0122323zm.0199843-.455386v.363232c.0668622-.0831024.177756-.119335.281681-.0904843v-.14274l-.281681-.130008z"/><path d="m.938047.289941c0-.0110394.00897244-.02.02-.02h.135957c.0110394 0 .02.00896063.02.02v.12372c.00001181.0110433-.00896063.02-.02.02h-.135957c-.0110394 0-.02-.00896063-.02-.02zm.02.198252h.135957c.0110394 0 .02.00896063.02.02v.12372c.00001181.0110433-.00896063.02-.02.02h-.135957c-.0110394 0-.02-.00896063-.02-.02v-.12372c0-.0110394.00897244-.02.02-.02zm0 .218236h.135957c.0110394 0 .02.00896063.02.02v.123736c.00001181.0110394-.00896063.02-.02.02h-.135957c-.0110394 0-.02-.00896063-.02-.02v-.123736c0-.0110394.00897244-.02.02-.02zm.210185.41828c.00028347-.0340512.00684252-.0671535.0195039-.0985l.00001575-.462685-.00001575-.34276c0-.016252-.0132205-.0294843-.0294685-.0294843l-.122067-.00000787h-.522961-.122071c-.016252 0-.0294843.0132362-.0294843.0294882l-.00001181.34276.00001181.923965h.223386v-.300406c0-.0110394.00896063-.02.02-.02h.33928c.0110394 0 .02.00897244.02.02v.300406h.223386v-.259697c-.0129606-.0320591-.0195118-.0659331-.0195118-.100776 0-.00076772.00000394-.00153543.00000787-.00230315zm-.210185-.20002h.135957c.0110394 0 .02.00897244.02.02v.123724c.00001181.0110276-.00896063.02-.02.02h-.135957c-.0110394 0-.02-.00897244-.02-.02v-.123724c0-.0110394.00897244-.02.02-.02zm-.0953504-.634748v.12372c0 .0110433-.00896063.02-.02.02h-.135957c-.0110394 0-.02-.00896063-.02-.02v-.12372c0-.0110394.00896063-.02.02-.02h.135957c.0110394 0 .02.00896063.02.02zm-.155957.198252h.135957c.0110394 0 .02.00896063.02.02v.12372c0 .0110433-.00896063.02-.02.02h-.135957c-.0110394 0-.02-.00896063-.02-.02v-.12372c0-.0110394.00896063-.02.02-.02zm0 .218236h.135957c.0110394 0 .02.00896063.02.02v.123736c0 .0110394-.00896063.02-.02.02h-.135957c-.0110394 0-.02-.00896063-.02-.02v-.123736c0-.0110394.00896063-.02.02-.02zm-.11535.21826c.0110394 0 .02.00897244.02.02v.123724c0 .0110276-.00895276.02-.02.02h-.135969c-.0110394 0-.02-.00897244-.02-.02v-.123724c0-.0110394.00896063-.02.02-.02zm.11535 0h.135957c.0110394 0 .02.00897244.02.02v.123724c0 .0110276-.00896063.02-.02.02h-.135957c-.0110394 0-.02-.00897244-.02-.02v-.123724c0-.0110394.00896063-.02.02-.02zm-.251319-.21826h.135969c.0110394 0 .02.00896063.02.02v.123736c0 .0110394-.00895276.02-.02.02h-.135969c-.0110394 0-.02-.00896063-.02-.02v-.123736c0-.0110394.00896063-.02.02-.02zm.155969-.198236v.12372c0 .0110433-.00895276.02-.02.02h-.135969c-.0110394 0-.02-.00896063-.02-.02v-.12372c0-.0110394.00896063-.02.02-.02h.135969c.0110394 0 .02.00896063.02.02zm0-.218252v.12372c0 .0110433-.00895276.02-.02.02h-.135969c-.0110394 0-.02-.00896063-.02-.02v-.12372c0-.0110394.00896063-.02.02-.02h.135969c.0110394 0 .02.00896063.02.02z" fill="#f3eae6"/></g></svg>